<?xml version="1.0" encoding="utf-8"?>
<!-- Generator: Adobe Illustrator 16.0.0, SVG Export Plug-In . SVG Version: 6.00 Build 0)  -->
<!DOCTYPE svg PUBLIC "-//W3C//DTD SVG 1.0//EN" "http://www.w3.org/TR/2001/REC-SVG-20010904/DTD/svg10.dtd">
<svg version="1.0" id="Layer_1" xmlns="http://www.w3.org/2000/svg" xmlns:xlink="http://www.w3.org/1999/xlink" x="0px" y="0px"
	 width="14px" height="50px" viewBox="0 0 14 50" enable-background="new 0 0 14 50" xml:space="preserve">
<g>
	<g>
		<path fill="#999999" d="M9.229,9.193C8.485,9.001,8.454,7.549,8.76,7.163c0.483-0.61,1.178-1.539,1.208-3.267
			C10,2.138,9.082,0,7,0C4.919,0,4,2.138,4.032,3.896C4.062,5.624,4.757,6.553,5.24,7.163c0.306,0.387,0.275,1.84-0.469,2.03
			C3.839,9.431,0,10.374,0,12.081c0,0.605,0,0.841,0,0.912c0,0.02,0,0.03,0,0.03v0.065C0,13.591,0.411,14,0.916,14h12.169
			C13.589,14,14,13.591,14,13.087v-0.065c0,0,0-0.01,0-0.03c0-0.071,0-0.306,0-0.912C14,10.374,10.161,9.431,9.229,9.193z"/>
	</g>
</g>
<g>
	<g>
		<path fill="#333333" d="M9.229,44.193c-0.743-0.191-0.774-1.644-0.469-2.03c0.483-0.61,1.178-1.539,1.208-3.267
			C10,37.138,9.082,35,7,35c-2.081,0-3,2.138-2.968,3.896c0.031,1.728,0.726,2.657,1.208,3.267c0.306,0.387,0.275,1.84-0.469,2.03
			C3.839,44.431,0,45.374,0,47.081c0,0.605,0,0.841,0,0.912c0,0.02,0,0.03,0,0.03v0.065C0,48.591,0.41,49,0.916,49h12.169
			C13.59,49,14,48.591,14,48.087v-0.065c0,0,0-0.01,0-0.03c0-0.071,0-0.306,0-0.912C14,45.374,10.161,44.431,9.229,44.193z"/>
	</g>
</g>
</svg>
