<?xml version="1.0" encoding="UTF-8" standalone="no"?>
<!-- Generator: Adobe Illustrator 16.0.0, SVG Export Plug-In . SVG Version: 6.00 Build 0)  -->

<svg
   xmlns:dc="http://purl.org/dc/elements/1.1/"
   xmlns:cc="http://creativecommons.org/ns#"
   xmlns:rdf="http://www.w3.org/1999/02/22-rdf-syntax-ns#"
   xmlns:svg="http://www.w3.org/2000/svg"
   xmlns="http://www.w3.org/2000/svg"
   xmlns:xlink="http://www.w3.org/1999/xlink"
   xmlns:sodipodi="http://sodipodi.sourceforge.net/DTD/sodipodi-0.dtd"
   xmlns:inkscape="http://www.inkscape.org/namespaces/inkscape"
   version="1.1"
   id="Layer_1"
   x="0px"
   y="0px"
   width="57"
   height="57.000004"
   viewBox="0 0 56.999999 57.000005"
   enable-background="new 0 0 290 126"
   xml:space="preserve"
   inkscape:version="0.48.4 r9939"
   sodipodi:docname="preference.svg"><metadata
   id="metadata4435"><rdf:RDF><cc:Work
       rdf:about=""><dc:format>image/svg+xml</dc:format><dc:type
         rdf:resource="http://purl.org/dc/dcmitype/StillImage" /><dc:title /></cc:Work></rdf:RDF></metadata><defs
   id="defs4433"><linearGradient
     id="SVGID_4_-8"
     gradientUnits="userSpaceOnUse"
     x1="42.75"
     y1="13.8901"
     x2="42.75"
     y2="108.9967"
     gradientTransform="translate(-14.25,-34.675)"><stop
       offset="0"
       style="stop-color:#005E98"
       id="stop4375-5" /><stop
       offset="1"
       style="stop-color:#001F54"
       id="stop4377-8" /></linearGradient><linearGradient
     id="SVGID_4_-3"
     gradientUnits="userSpaceOnUse"
     x1="42.75"
     y1="13.8901"
     x2="42.75"
     y2="108.9967"
     gradientTransform="translate(-14.25,-34.675)"><stop
       offset="0"
       style="stop-color:#005E98"
       id="stop4375-4" /><stop
       offset="1"
       style="stop-color:#001F54"
       id="stop4377-0" /></linearGradient><linearGradient
     inkscape:collect="always"
     xlink:href="#SVGID_4_-3"
     id="linearGradient3942"
     gradientUnits="userSpaceOnUse"
     gradientTransform="translate(181.72065,-34.523859)"
     x1="42.75"
     y1="13.8901"
     x2="42.75"
     y2="108.9967" /><linearGradient
     inkscape:collect="always"
     xlink:href="#SVGID_4_-3-2"
     id="linearGradient3942-2"
     gradientUnits="userSpaceOnUse"
     gradientTransform="translate(181.72065,-34.523859)"
     x1="42.75"
     y1="13.8901"
     x2="42.75"
     y2="108.9967" /><linearGradient
     id="SVGID_4_-3-2"
     gradientUnits="userSpaceOnUse"
     x1="42.75"
     y1="13.8901"
     x2="42.75"
     y2="108.9967"
     gradientTransform="translate(-14.25,-34.675)"><stop
       offset="0"
       style="stop-color:#005E98"
       id="stop4375-4-6" /><stop
       offset="1"
       style="stop-color:#001F54"
       id="stop4377-0-9" /></linearGradient><clipPath
     clipPathUnits="userSpaceOnUse"
     id="clipPath4783"><g
       transform="translate(-89.695013,59.933421)"
       id="g4785"
       mask="none"
       clip-path="none"
       style="fill:#999999"><path
         style="fill:#999999"
         inkscape:connector-curvature="0"
         id="path4787"
         d="m 231.66788,32.539166 c -1.937,-0.499 -2.017,-4.292999 -1.221,-5.301999 1.257,-1.592 3.066,-4.021 3.146,-8.533 0.081,-4.591 -2.309,-10.1750003 -7.728,-10.1750003 -5.419,0 -7.809,5.5840003 -7.728,10.1750003 0.08,4.513 1.889,6.941 3.146,8.533 0.796,1.009 0.716,4.803999 -1.221,5.301999 -2.426,0.624 -12.421,3.084 -12.421,7.543 0,1.991 0,2.459 0,2.459 h 18.224 18.224 c 0,0 0,-0.468 0,-2.459 0,-4.459 -9.995,-6.92 -12.421,-7.543 z" /><path
         style="fill:#999999"
         inkscape:connector-curvature="0"
         id="path4789"
         d="m 244.08888,42.711166 c 0,1.315 -1.067,2.382 -2.382,2.382 h -31.684 c -1.315,0 -2.382,-1.067 -2.382,-2.382 v -0.247 c 0,-1.315 1.067,-2.382 2.382,-2.382 h 31.684 c 1.315,0 2.382,1.067 2.382,2.382 v 0.247 z" /></g></clipPath><linearGradient
     inkscape:collect="always"
     xlink:href="#SVGID_4_-3-2"
     id="linearGradient4793"
     gradientUnits="userSpaceOnUse"
     gradientTransform="translate(93.419367,23.104344)"
     x1="42.75"
     y1="13.8901"
     x2="42.75"
     y2="108.9967" /><linearGradient
     inkscape:collect="always"
     xlink:href="#SVGID_4_-3-6"
     id="linearGradient3942-7"
     gradientUnits="userSpaceOnUse"
     gradientTransform="translate(181.72065,-34.523859)"
     x1="42.75"
     y1="13.8901"
     x2="42.75"
     y2="108.9967" /><linearGradient
     id="SVGID_4_-3-6"
     gradientUnits="userSpaceOnUse"
     x1="42.75"
     y1="13.8901"
     x2="42.75"
     y2="108.9967"
     gradientTransform="translate(-14.25,-34.675)"><stop
       offset="0"
       style="stop-color:#005E98"
       id="stop4375-4-2" /><stop
       offset="1"
       style="stop-color:#001F54"
       id="stop4377-0-91" /></linearGradient><linearGradient
     y2="108.9967"
     x2="42.75"
     y1="13.8901"
     x1="42.75"
     gradientTransform="translate(119.90975,-22.440526)"
     gradientUnits="userSpaceOnUse"
     id="linearGradient4814"
     xlink:href="#SVGID_4_-3-6"
     inkscape:collect="always" /><linearGradient
     id="SVGID_4_-9"
     gradientUnits="userSpaceOnUse"
     x1="42.75"
     y1="13.8901"
     x2="42.75"
     y2="108.9967"
     gradientTransform="translate(-14.25,-34.675)"><stop
       offset="0"
       style="stop-color:#005E98"
       id="stop4375-7" /><stop
       offset="1"
       style="stop-color:#001F54"
       id="stop4377-9" /></linearGradient><linearGradient
     y2="108.9967"
     x2="42.75"
     y1="13.8901"
     x1="42.75"
     gradientTransform="translate(118.05078,82.126779)"
     gradientUnits="userSpaceOnUse"
     id="linearGradient4865"
     xlink:href="#SVGID_4_-9"
     inkscape:collect="always" /><linearGradient
     inkscape:collect="always"
     xlink:href="#SVGID_4_-9"
     id="linearGradient4887"
     gradientUnits="userSpaceOnUse"
     gradientTransform="translate(118.05078,82.12678)"
     x1="42.75"
     y1="13.8901"
     x2="42.75"
     y2="108.9967" /><linearGradient
     inkscape:collect="always"
     xlink:href="#SVGID_4_-9"
     id="linearGradient4890"
     gradientUnits="userSpaceOnUse"
     gradientTransform="translate(-14.261721,-34.68572)"
     x1="42.75"
     y1="13.8901"
     x2="42.75"
     y2="108.9967" /></defs><sodipodi:namedview
   pagecolor="#ffffff"
   bordercolor="#666666"
   borderopacity="1"
   objecttolerance="10"
   gridtolerance="10"
   guidetolerance="10"
   inkscape:pageopacity="0"
   inkscape:pageshadow="2"
   inkscape:window-width="932"
   inkscape:window-height="827"
   id="namedview4431"
   showgrid="false"
   inkscape:zoom="2.1517242"
   inkscape:cx="158.2744"
   inkscape:cy="96.224687"
   inkscape:window-x="966"
   inkscape:window-y="283"
   inkscape:window-maximized="0"
   inkscape:current-layer="Layer_1"
   fit-margin-top="0"
   fit-margin-left="0"
   fit-margin-right="0"
   fit-margin-bottom="0" />
<linearGradient
   id="SVGID_1_"
   gradientUnits="userSpaceOnUse"
   x1="250.75"
   y1="18.8892"
   x2="250.75"
   y2="106.5635">
	<stop
   offset="0"
   style="stop-color:#005E98"
   id="stop4354" />
	<stop
   offset="1"
   style="stop-color:#001F54"
   id="stop4356" />
</linearGradient>

<linearGradient
   id="SVGID_2_"
   gradientUnits="userSpaceOnUse"
   x1="253.7402"
   y1="18.978001"
   x2="253.7402"
   y2="106.6508">
	<stop
   offset="0"
   style="stop-color:#005E98"
   id="stop4361" />
	<stop
   offset="1"
   style="stop-color:#001F54"
   id="stop4363" />
</linearGradient>

<linearGradient
   id="SVGID_3_"
   gradientUnits="userSpaceOnUse"
   x1="250.75"
   y1="19.3384"
   x2="250.75"
   y2="105.4764">
	<stop
   offset="0"
   style="stop-color:#005E98"
   id="stop4368" />
	<stop
   offset="1"
   style="stop-color:#004D87"
   id="stop4370" />
</linearGradient>

<linearGradient
   id="SVGID_4_"
   gradientUnits="userSpaceOnUse"
   x1="42.75"
   y1="13.8901"
   x2="42.75"
   y2="108.9967"
   gradientTransform="translate(-14.25,-34.675)">
	<stop
   offset="0"
   style="stop-color:#005E98"
   id="stop4375" />
	<stop
   offset="1"
   style="stop-color:#001F54"
   id="stop4377" />
</linearGradient>





<linearGradient
   id="SVGID_6_"
   gradientUnits="userSpaceOnUse"
   x1="249.75"
   y1="18.8901"
   x2="249.75"
   y2="106.5629">
	<stop
   offset="0"
   style="stop-color:#005E98"
   id="stop4403" />
	<stop
   offset="1"
   style="stop-color:#004D87"
   id="stop4405" />
</linearGradient>

<linearGradient
   id="SVGID_7_"
   gradientUnits="userSpaceOnUse"
   x1="249.75"
   y1="18.978001"
   x2="249.75"
   y2="106.6508">
	<stop
   offset="0"
   style="stop-color:#005E98"
   id="stop4410" />
	<stop
   offset="1"
   style="stop-color:#001F54"
   id="stop4412" />
</linearGradient>

<linearGradient
   id="SVGID_8_"
   gradientUnits="userSpaceOnUse"
   x1="249.75"
   y1="18.8892"
   x2="249.75"
   y2="106.5635">
	<stop
   offset="0"
   style="stop-color:#005E98"
   id="stop4417" />
	<stop
   offset="1"
   style="stop-color:#001F54"
   id="stop4419" />
</linearGradient>





<path
   style="fill:url(#linearGradient4890)"
   d="M 8.9374987,0 C 4.0014987,0 -1.335776e-6,4.0015 -1.335776e-6,8.937504 l 0,39.125 c 0,4.936 4.002500035776,8.9375 8.937500035776,8.9375 l 39.1250003,0 c 4.936,0 8.9375,-4.0015 8.9375,-8.9375 l 0,-39.125 C 56.999999,4.0015 52.997499,0 48.062499,0 L 8.9374987,0 z M 28.499999,10.218754 c 5.419,0 7.79975,5.5965 7.71875,10.1875 -0.08,4.512 -1.89925,6.93925 -3.15625,8.53125 -0.796,1.009 -0.71825,4.8135 1.21875,5.3125 2.426,0.623 12.4375,3.07225 12.4375,7.53125 l 0,2.375 0,0.0937 0,0.15625 c 0,1.315 -1.06,2.375 -2.375,2.375 l -31.6875,0 c -1.315,0 -2.40625,-1.06 -2.40625,-2.375 l 0,-0.15625 0,-0.0937 0,-2.375 c 0,-4.459 10.0115,-6.90725 12.4375,-7.53125 1.937,-0.498 2.01475,-4.3035 1.21875,-5.3125 -1.257,-1.592 -3.07625,-4.01825 -3.15625,-8.53125 -0.081,-4.591 2.331,-10.1875 7.75,-10.1875 z"
   id="path4379-77"
   inkscape:connector-curvature="0" /></svg>