<?xml version="1.0" encoding="utf-8"?>
<!-- Generator: Adobe Illustrator 16.0.0, SVG Export Plug-In . SVG Version: 6.00 Build 0)  -->
<!DOCTYPE svg PUBLIC "-//W3C//DTD SVG 1.0//EN" "http://www.w3.org/TR/2001/REC-SVG-20010904/DTD/svg10.dtd">
<svg version="1.0" id="Layer_1" xmlns="http://www.w3.org/2000/svg" xmlns:xlink="http://www.w3.org/1999/xlink" x="0px" y="0px"
	 width="18px" height="50px" viewBox="-4 0 18 50" enable-background="new -4 0 18 50" xml:space="preserve">
<g>
	<g>
		<g>
			<path fill="#999999" d="M14,2c0,0.552-0.447,1-1,1H-3c-0.552,0-1-0.448-1-1l0,0c0-0.552,0.448-1,1-1h16C13.553,1,14,1.448,14,2
				L14,2z"/>
		</g>
	</g>
	<g>
		<g>
			<path fill="#999999" d="M14,7c0,0.552-0.447,1-1,1H-3c-0.552,0-1-0.448-1-1l0,0c0-0.552,0.448-1,1-1h16C13.553,6,14,6.448,14,7
				L14,7z"/>
		</g>
	</g>
	<g>
		<g>
			<path fill="#999999" d="M14,12c0,0.552-0.447,1-1,1H-3c-0.552,0-1-0.448-1-1l0,0c0-0.552,0.448-1,1-1h16
				C13.553,11,14,11.448,14,12L14,12z"/>
		</g>
	</g>
</g>
<g>
	<g>
		<g>
			<path fill="#333333" d="M14,37c0,0.553-0.447,1-1,1H-3c-0.552,0-1-0.447-1-1l0,0c0-0.553,0.448-1,1-1h16
				C13.553,36,14,36.447,14,37L14,37z"/>
		</g>
	</g>
	<g>
		<g>
			<path fill="#333333" d="M14,42c0,0.553-0.447,1-1,1H-3c-0.552,0-1-0.447-1-1l0,0c0-0.553,0.448-1,1-1h16
				C13.553,41,14,41.447,14,42L14,42z"/>
		</g>
	</g>
	<g>
		<g>
			<path fill="#333333" d="M14,47c0,0.553-0.447,1-1,1H-3c-0.552,0-1-0.447-1-1l0,0c0-0.553,0.448-1,1-1h16
				C13.553,46,14,46.447,14,47L14,47z"/>
		</g>
	</g>
</g>
</svg>
