<?xml version="1.0" encoding="UTF-8"?>
<!-- Generator: Adobe Illustrator 16.0.0, SVG Export Plug-In . SVG Version: 6.00 Build 0)  -->
<!DOCTYPE svg PUBLIC "-//W3C//DTD SVG 1.1//EN" "http://www.w3.org/Graphics/SVG/1.1/DTD/svg11.dtd">
<svg version="1.1" id="Layer_1" xmlns="http://www.w3.org/2000/svg" xmlns:xlink="http://www.w3.org/1999/xlink" x="0px" y="0px" width="290px" height="126px" viewBox="0 0 290 126" enable-background="new 0 0 290 126" xml:space="preserve">
<linearGradient id="SVGID_1_" gradientUnits="userSpaceOnUse" x1="250.75" y1="18.8892" x2="250.75" y2="106.5635">
	<stop offset="0" style="stop-color:#005E98"/>
	<stop offset="1" style="stop-color:#001F54"/>
</linearGradient>
<path fill="url(#SVGID_1_)" d="M269.769,84.75c1.506,0,2.731,1.241,2.731,2.767v14.966l-2.731,6.018  c3.302,0,5.981-2.694,5.981-6.018V87.517c0-3.323-2.68-6.017-5.981-6.017l0,0h-38.037c-3.302,0-5.981,2.694-5.981,6.017l5.981-2.767  H269.769"/>
<linearGradient id="SVGID_2_" gradientUnits="userSpaceOnUse" x1="253.7402" y1="18.978" x2="253.7402" y2="106.6508">
	<stop offset="0" style="stop-color:#005E98"/>
	<stop offset="1" style="stop-color:#001F54"/>
</linearGradient>
<path fill="url(#SVGID_2_)" d="M269.769,52.837c1.506,0,2.731,1.241,2.731,2.767V70.57c0,1.526-1.226,2.767-2.731,2.767h-38.037  v3.25h38.037c3.302,0,5.981-2.694,5.981-6.017V55.604c0-3.323-2.68-6.017-5.981-6.017l0,0h-38.037v3.25H269.769"/>
<linearGradient id="SVGID_3_" gradientUnits="userSpaceOnUse" x1="250.75" y1="19.3384" x2="250.75" y2="105.4764">
	<stop offset="0" style="stop-color:#005E98"/>
	<stop offset="1" style="stop-color:#004D87"/>
</linearGradient>
<path fill="url(#SVGID_3_)" d="M269.769,20.75 M225.75,38.482c0,3.323,2.68,6.017,5.981,6.017h38.037  c3.302,0,5.981-2.694,5.981-6.017V23.517c0-2.492-1.507-4.63-3.653-5.544l-0.05,4.02c0.286,0.437,0.453,0.961,0.453,1.525v14.966  c0,1.526-1.226,2.767-2.731,2.767h-38.037"/>
<linearGradient id="SVGID_4_" gradientUnits="userSpaceOnUse" x1="42.75" y1="13.8901" x2="42.75" y2="108.9967">
	<stop offset="0" style="stop-color:#005E98"/>
	<stop offset="1" style="stop-color:#001F54"/>
</linearGradient>
<path fill="url(#SVGID_4_)" d="M71.25,82.739c0,4.936-4.001,8.937-8.937,8.937H23.187c-4.935,0-8.937-4.001-8.937-8.937V43.612  c0-4.936,4.001-8.937,8.937-8.937h39.127c4.935,0,8.937,4.001,8.937,8.937V82.739z"/>
<line opacity="0.8" fill="none" stroke="#F36B3E" stroke-width="3" stroke-linecap="round" stroke-linejoin="round" stroke-miterlimit="10" x1="177.233" y1="63.175" x2="217.75" y2="63.175"/>
<line opacity="0.8" fill="none" stroke="#F36B3E" stroke-width="3" stroke-linecap="round" stroke-linejoin="round" stroke-miterlimit="10" x1="78.75" y1="63.046" x2="109.75" y2="63.046"/>
<g opacity="0.9">
	<linearGradient id="SVGID_5_" gradientUnits="userSpaceOnUse" x1="143.7495" y1="13.8901" x2="143.7495" y2="108.9966">
		<stop offset="0" style="stop-color:#005E98"/>
		<stop offset="1" style="stop-color:#001F54"/>
	</linearGradient>
	<path fill="url(#SVGID_5_)" d="M170.24,73.617c0,3.658-2.965,6.623-6.622,6.623h-39.737c-3.657,0-6.623-2.965-6.623-6.623V52.383   c0-3.658,2.965-6.623,6.623-6.623h39.737c3.657,0,6.622,2.965,6.622,6.623V73.617z"/>
</g>
<g>
	<path fill="#FFFFFF" d="M128.065,65.548c0.084,0.592,0.248,1.034,0.493,1.327c0.449,0.533,1.218,0.8,2.307,0.8   c0.652,0,1.182-0.07,1.589-0.211c0.771-0.27,1.157-0.771,1.157-1.503c0-0.428-0.189-0.759-0.567-0.993   c-0.378-0.229-0.978-0.431-1.799-0.606l-1.402-0.308c-1.378-0.305-2.325-0.636-2.841-0.993c-0.873-0.598-1.31-1.532-1.31-2.804   c0-1.16,0.427-2.124,1.281-2.892s2.108-1.151,3.764-1.151c1.382,0,2.561,0.362,3.536,1.085c0.977,0.724,1.487,1.774,1.535,3.151   h-2.602c-0.048-0.779-0.396-1.333-1.045-1.661c-0.433-0.217-0.971-0.325-1.613-0.325c-0.715,0-1.285,0.141-1.712,0.422   s-0.64,0.674-0.64,1.178c0,0.463,0.21,0.809,0.631,1.037c0.271,0.152,0.844,0.331,1.721,0.536l2.273,0.536   c0.997,0.234,1.743,0.548,2.241,0.94c0.772,0.609,1.158,1.491,1.158,2.646c0,1.184-0.458,2.167-1.373,2.949   s-2.207,1.173-3.877,1.173c-1.706,0-3.047-0.385-4.024-1.156s-1.466-1.83-1.466-3.177H128.065z"/>
	<path fill="#FFFFFF" d="M140.071,65.548c0.084,0.592,0.248,1.034,0.493,1.327c0.449,0.533,1.218,0.8,2.307,0.8   c0.652,0,1.182-0.07,1.589-0.211c0.771-0.27,1.157-0.771,1.157-1.503c0-0.428-0.189-0.759-0.567-0.993   c-0.378-0.229-0.978-0.431-1.799-0.606l-1.402-0.308c-1.378-0.305-2.325-0.636-2.841-0.993c-0.873-0.598-1.31-1.532-1.31-2.804   c0-1.16,0.427-2.124,1.281-2.892s2.108-1.151,3.764-1.151c1.382,0,2.561,0.362,3.537,1.085c0.977,0.724,1.486,1.774,1.535,3.151   h-2.602c-0.048-0.779-0.396-1.333-1.045-1.661c-0.433-0.217-0.971-0.325-1.613-0.325c-0.715,0-1.285,0.141-1.712,0.422   s-0.64,0.674-0.64,1.178c0,0.463,0.21,0.809,0.631,1.037c0.271,0.152,0.844,0.331,1.721,0.536l2.273,0.536   c0.997,0.234,1.743,0.548,2.241,0.94c0.773,0.609,1.158,1.491,1.158,2.646c0,1.184-0.457,2.167-1.373,2.949   c-0.914,0.782-2.207,1.173-3.876,1.173c-1.706,0-3.047-0.385-4.024-1.156s-1.466-1.83-1.466-3.177H140.071z"/>
	<path fill="#FFFFFF" d="M160.102,68.396c-0.979,1.008-2.395,1.512-4.246,1.512s-3.266-0.504-4.244-1.512   c-1.312-1.236-1.969-3.018-1.969-5.344c0-2.373,0.656-4.154,1.969-5.344c0.979-1.008,2.393-1.512,4.244-1.512   s3.268,0.504,4.246,1.512c1.307,1.189,1.959,2.971,1.959,5.344C162.061,65.378,161.408,67.16,160.102,68.396z M158.408,66.427   c0.631-0.791,0.945-1.916,0.945-3.375c0-1.453-0.314-2.577-0.945-3.371c-0.629-0.794-1.48-1.191-2.553-1.191   s-1.928,0.396-2.566,1.187s-0.957,1.916-0.957,3.375s0.318,2.584,0.957,3.375s1.494,1.187,2.566,1.187   S157.779,67.218,158.408,66.427z"/>
</g>
<linearGradient id="SVGID_6_" gradientUnits="userSpaceOnUse" x1="249.75" y1="18.8901" x2="249.75" y2="106.5629">
	<stop offset="0" style="stop-color:#005E98"/>
	<stop offset="1" style="stop-color:#004D87"/>
</linearGradient>
<path fill="url(#SVGID_6_)" d="M268.769,19.75c1.506,0,2.731,1.241,2.731,2.767v14.966c0,1.526-1.226,2.767-2.731,2.767h-38.037  c-1.506,0-2.731-1.241-2.731-2.767V22.517c0-1.526,1.226-2.767,2.731-2.767H268.769 M268.769,16.5h-38.037  c-3.302,0-5.981,2.694-5.981,6.017v14.966c0,3.323,2.68,6.017,5.981,6.017h38.037c3.302,0,5.981-2.694,5.981-6.017V22.517  C274.75,19.194,272.07,16.5,268.769,16.5L268.769,16.5z"/>
<linearGradient id="SVGID_7_" gradientUnits="userSpaceOnUse" x1="249.75" y1="18.978" x2="249.75" y2="106.6508">
	<stop offset="0" style="stop-color:#005E98"/>
	<stop offset="1" style="stop-color:#001F54"/>
</linearGradient>
<path fill="url(#SVGID_7_)" d="M268.769,52.837c1.506,0,2.731,1.241,2.731,2.767V70.57c0,1.526-1.226,2.767-2.731,2.767h-38.037  c-1.506,0-2.731-1.241-2.731-2.767V55.604c0-1.526,1.226-2.767,2.731-2.767H268.769 M268.769,49.587h-38.037  c-3.302,0-5.981,2.694-5.981,6.017V70.57c0,3.323,2.68,6.017,5.981,6.017h38.037c3.302,0,5.981-2.694,5.981-6.017V55.604  C274.75,52.282,272.07,49.587,268.769,49.587L268.769,49.587z"/>
<linearGradient id="SVGID_8_" gradientUnits="userSpaceOnUse" x1="249.75" y1="18.8892" x2="249.75" y2="106.5635">
	<stop offset="0" style="stop-color:#005E98"/>
	<stop offset="1" style="stop-color:#001F54"/>
</linearGradient>
<path fill="url(#SVGID_8_)" d="M268.769,85.75c1.506,0,2.731,1.242,2.731,2.768v14.966c0,1.525-1.226,2.767-2.731,2.767h-38.037  c-1.506,0-2.731-1.241-2.731-2.767V88.517c0-1.526,1.226-2.768,2.731-2.768H268.769 M268.769,82.5h-38.037  c-3.302,0-5.981,2.694-5.981,6.018v14.966c0,3.322,2.68,6.017,5.981,6.017h38.037c3.302,0,5.981-2.694,5.981-6.017V88.517  C274.75,85.194,272.07,82.5,268.769,82.5L268.769,82.5z"/>
<path fill="#FFFFFF" d="M48.553,68.922c-1.937-0.499-2.017-4.293-1.221-5.302c1.257-1.592,3.066-4.021,3.146-8.533  c0.081-4.591-2.309-10.175-7.728-10.175s-7.809,5.584-7.728,10.175c0.08,4.513,1.889,6.941,3.146,8.533  c0.796,1.009,0.716,4.804-1.221,5.302c-2.426,0.624-12.421,3.084-12.421,7.543c0,1.991,0,2.459,0,2.459H42.75h18.224  c0,0,0-0.468,0-2.459C60.974,72.006,50.979,69.545,48.553,68.922z"/>
<path opacity="0.8" fill="none" stroke="#F36B3E" stroke-width="3" stroke-linecap="round" stroke-linejoin="round" stroke-miterlimit="10" d="  M177.233,55.14c0,0,9.267,0,11.184,0c5.667,0,8.333-3.083,8.333-9.416c0-6.591,0-3.136,0-5.5c0-5,2.167-8.225,7.667-8.225  C209,32,219,32,219,32"/>
<path opacity="0.8" fill="none" stroke="#F36B3E" stroke-width="3" stroke-linecap="round" stroke-linejoin="round" stroke-miterlimit="10" d="  M177.233,70.859c0,0,9.267,0,11.184,0c5.667,0,8.333,3.082,8.333,9.416c0,6.59,0,3.135,0,5.5c0,5,2.167,8.225,7.667,8.225  C209,94,219,94,219,94"/>
<path fill="#FFFFFF" d="M60.974,79.094c0,1.315-1.067,2.382-2.382,2.382H26.908c-1.315,0-2.382-1.067-2.382-2.382v-0.247  c0-1.315,1.067-2.382,2.382-2.382h31.684c1.315,0,2.382,1.067,2.382,2.382V79.094z"/>
</svg>