<?xml version="1.0" encoding="utf-8"?>
<!-- Generator: Adobe Illustrator 16.0.0, SVG Export Plug-In . SVG Version: 6.00 Build 0)  -->
<!DOCTYPE svg PUBLIC "-//W3C//DTD SVG 1.1//EN" "http://www.w3.org/Graphics/SVG/1.1/DTD/svg11.dtd">
<svg version="1.1" id="Layer_1" xmlns="http://www.w3.org/2000/svg" xmlns:xlink="http://www.w3.org/1999/xlink" x="0px" y="0px"
	 width="290px" height="126px" viewBox="0 0 290 126" enable-background="new 0 0 290 126" xml:space="preserve">
<path opacity="0.05" fill="#001F54" enable-background="new    " d="M259.944,72.472c0,5.521-4.479,10-10,10h-199
	c-5.523,0-10-4.479-10-10v-52c0-5.522,4.477-10,10-10h199c5.521,0,10,4.478,10,10V72.472z"/>
<linearGradient id="SVGID_1_" gradientUnits="userSpaceOnUse" x1="80.0161" y1="46.5742" x2="121.7544" y2="46.5742">
	<stop  offset="0" style="stop-color:#005E98"/>
	<stop  offset="1" style="stop-color:#001F54"/>
</linearGradient>
<path fill="url(#SVGID_1_)" d="M107.53,53.134c-2.216-0.573-2.31-4.917-1.398-6.072c1.44-1.824,3.511-4.604,3.603-9.771
	c0.093-5.257-2.645-11.652-8.85-11.652c-6.204,0-8.942,6.395-8.849,11.652c0.092,5.167,2.164,7.948,3.603,9.771
	c0.912,1.156,0.82,5.502-1.399,6.072c-2.778,0.713-14.224,3.531-14.224,8.637c0,1.811,0,2.515,0,2.727c0,0.059,0,0.09,0,0.09v0.194
	c0,1.507,1.223,2.729,2.73,2.729h36.28c1.506,0,2.729-1.223,2.729-2.729v-0.194c0,0,0-0.031,0-0.09c0-0.212,0-0.916,0-2.727
	C121.754,56.665,110.309,53.847,107.53,53.134z"/>
<g>
	<linearGradient id="SVGID_2_" gradientUnits="userSpaceOnUse" x1="185.8506" y1="46.2651" x2="222.8154" y2="46.2651">
		<stop  offset="0" style="stop-color:#005E98"/>
		<stop  offset="1" style="stop-color:#001F54"/>
	</linearGradient>
	<path fill="url(#SVGID_2_)" d="M210.22,52.073c-1.965-0.507-2.048-4.353-1.239-5.377c1.273-1.614,3.109-4.078,3.189-8.654
		c0.082-4.656-2.341-10.319-7.836-10.319c-5.497,0-7.92,5.663-7.839,10.319c0.081,4.577,1.917,7.04,3.19,8.654
		c0.809,1.024,0.728,4.871-1.237,5.377c-2.459,0.633-12.598,3.127-12.598,7.65c0,1.601,0,2.227,0,2.416c0,0.051,0,0.075,0,0.075
		v0.173c0,1.338,1.082,2.42,2.418,2.42h32.131c1.333,0,2.416-1.082,2.416-2.42v-0.173c0,0,0-0.024,0-0.075c0-0.189,0-0.815,0-2.416
		C222.815,55.2,212.679,52.704,210.22,52.073z"/>
	<linearGradient id="SVGID_3_" gradientUnits="userSpaceOnUse" x1="165.8887" y1="46.2651" x2="202.8535" y2="46.2651">
		<stop  offset="0" style="stop-color:#005E98"/>
		<stop  offset="1" style="stop-color:#001F54"/>
	</linearGradient>
	<path fill="url(#SVGID_3_)" d="M190.257,52.073c-1.964-0.507-2.046-4.353-1.237-5.377c1.272-1.614,3.109-4.078,3.189-8.654
		c0.084-4.656-2.342-10.319-7.837-10.319s-7.921,5.663-7.838,10.319c0.081,4.577,1.914,7.04,3.19,8.654
		c0.808,1.024,0.726,4.871-1.238,5.377c-2.461,0.633-12.598,3.127-12.598,7.65c0,1.601,0,2.227,0,2.416c0,0.051,0,0.075,0,0.075
		v0.173c0,1.338,1.084,2.42,2.416,2.42h32.134c1.332,0,2.415-1.082,2.415-2.42v-0.173c0,0,0-0.024,0-0.075c0-0.189,0-0.815,0-2.416
		C202.854,55.2,192.716,52.704,190.257,52.073z"/>
	<g>
		<linearGradient id="SVGID_4_" gradientUnits="userSpaceOnUse" x1="172.625" y1="46.3682" x2="216.0801" y2="46.3682">
			<stop  offset="0" style="stop-color:#005E98"/>
			<stop  offset="1" style="stop-color:#001F54"/>
		</linearGradient>
		<path fill="url(#SVGID_4_)" d="M176.212,68.162c-1.979,0-3.587-1.609-3.587-3.589v-3.008c0-5.656,11.035-8.488,14.662-9.419
			l0.206-0.053c0.559-0.144,0.872-0.757,1.038-1.246c0.45-1.332,0.249-3.017-0.101-3.46c-1.289-1.636-3.686-4.68-3.786-10.289
			c-0.069-3.854,1.281-7.666,3.524-9.949c1.656-1.686,3.794-2.577,6.183-2.577c2.39,0,4.527,0.891,6.184,2.576
			c2.242,2.282,3.593,6.095,3.524,9.949c-0.098,5.617-2.497,8.656-3.787,10.289c-0.348,0.442-0.547,2.128-0.097,3.459
			c0.165,0.489,0.479,1.103,1.036,1.246l0.208,0.054c3.626,0.93,14.66,3.763,14.66,9.418v3.008c0,1.979-1.608,3.589-3.587,3.589
			H176.212z"/>
		<path fill="#F2F4F6" d="M194.352,25.433c6.207,0,8.942,6.395,8.85,11.651c-0.09,5.168-2.161,7.947-3.603,9.772
			c-0.91,1.156-0.818,5.499,1.399,6.069c2.777,0.717,14.224,3.532,14.224,8.641c0,1.809,0,2.512,0,2.727c0,0.056,0,0.089,0,0.089
			v0.192c0,1.509-1.222,2.73-2.729,2.73h-36.281c-1.506,0-2.729-1.222-2.729-2.73v-0.192c0,0,0-0.033,0-0.089
			c0-0.215,0-0.918,0-2.727c0-5.108,11.445-7.924,14.224-8.641c2.22-0.567,2.311-4.913,1.397-6.069
			c-1.438-1.825-3.509-4.604-3.602-9.772C185.409,31.827,188.147,25.433,194.352,25.433 M194.352,23.715
			c-2.624,0-4.975,0.98-6.795,2.834c-2.436,2.479-3.845,6.429-3.771,10.566c0.106,5.898,2.619,9.089,3.97,10.804
			c0.17,0.301,0.343,1.769-0.107,2.838c-0.132,0.316-0.282,0.482-0.366,0.503l-0.208,0.054c-1.556,0.399-5.199,1.335-8.456,2.821
			c-4.546,2.076-6.852,4.576-6.852,7.43v2.727v0.089v0.192c0,2.453,1.994,4.448,4.446,4.448h36.281c2.452,0,4.446-1.995,4.446-4.448
			v-0.192v-0.089v-2.727c0-6.322-11.521-9.279-15.306-10.25l-0.207-0.054c-0.085-0.021-0.235-0.188-0.368-0.505
			c-0.45-1.07-0.278-2.539-0.086-2.873c1.326-1.676,3.844-4.863,3.946-10.77c0.072-4.138-1.337-8.088-3.771-10.566
			C199.326,24.694,196.977,23.715,194.352,23.715L194.352,23.715z"/>
	</g>
</g>
<g>
	
		<linearGradient id="SVGID_5_" gradientUnits="userSpaceOnUse" x1="-105.0293" y1="4.7847" x2="-105.0293" y2="48.8989" gradientTransform="matrix(1 0 0 -1 219 129.5)">
		<stop  offset="0" style="stop-color:#005E98"/>
		<stop  offset="1" style="stop-color:#001F54"/>
	</linearGradient>
	<path fill="url(#SVGID_5_)" d="M122.508,99.836v-6.262c0-2.728-2.212-4.938-4.94-4.938h-7.32c-2.728,0-4.939,2.211-4.939,4.938
		v6.262h-2.015v15.239h21.355V99.836H122.508z M109.101,94.897c0-1.169,0.947-2.118,2.116-2.118h5.381
		c1.169,0,2.117,0.949,2.117,2.118v4.938h-9.614V94.897z"/>
	<path fill="#FFFFFF" d="M115.702,105.72c0-0.956-0.776-1.731-1.732-1.731c-0.956,0-1.731,0.775-1.731,1.731
		c0,0.578,0.287,1.089,0.723,1.402l0.341,2.857l0.663,0.704l0.674-0.704l0.338-2.857C115.416,106.809,115.702,106.3,115.702,105.72z
		"/>
	<g>
		
			<linearGradient id="SVGID_6_" gradientUnits="userSpaceOnUse" x1="-99.4229" y1="22.1035" x2="-88.1318" y2="22.1035" gradientTransform="matrix(1 0 0 -1 219 129.5)">
			<stop  offset="0" style="stop-color:#005E98"/>
			<stop  offset="1" style="stop-color:#001F54"/>
		</linearGradient>
		<path fill="url(#SVGID_6_)" d="M123.104,115.391v-8.042l-1.299-0.679l-2.229-7.967l0.233-0.139
			c1.08-0.634,3.926-1.044,5.412-1.046c1.488,0.002,4.335,0.412,5.412,1.046l0.234,0.139l-2.231,7.967l-1.297,0.679v0.564
			l-0.807,0.806l0.952,0.952l-0.952,0.952l0.952,0.954l-0.952,0.949l0.952,0.954l-0.952,0.952l0.888,0.887l-2.199,1.955
			L123.104,115.391z M125.223,100.22c-0.39,0-0.706,0.317-0.706,0.707c0,0.388,0.316,0.706,0.706,0.706
			c0.388,0,0.706-0.318,0.706-0.708C125.929,100.537,125.611,100.22,125.223,100.22z"/>
		<path fill="#FFFFFF" d="M125.223,97.87c1.491,0.002,4.249,0.419,5.233,0.996l-2.117,7.562l-1.352,0.705v0.632l-0.951,0.954
			l0.951,0.952l-0.951,0.952l0.951,0.954l-0.951,0.949l0.951,0.952l-0.951,0.951l0.871,0.874l-1.684,1.498l-1.765-1.569v-8.1
			l-1.353-0.705l-2.116-7.559C120.975,98.289,123.731,97.872,125.223,97.87 M125.223,101.984c0.583,0,1.058-0.473,1.06-1.058
			c-0.001-0.584-0.476-1.059-1.06-1.059c-0.584,0-1.059,0.472-1.059,1.059C124.164,101.512,124.639,101.984,125.223,101.984
			 M125.225,97.164h-0.001h-0.002c-1.561,0.003-4.444,0.422-5.589,1.096l-0.469,0.275l0.148,0.524l2.115,7.559l0.082,0.293
			l0.271,0.142l0.974,0.508v7.672v0.317l0.236,0.211l1.765,1.569l0.469,0.417l0.468-0.417l1.687-1.5l0.558-0.495l-0.527-0.531
			l-0.375-0.371l0.454-0.455l0.499-0.497l-0.499-0.499l-0.454-0.453l0.453-0.452l0.5-0.499l-0.5-0.498l-0.453-0.454l0.453-0.452
			l0.5-0.497l-0.5-0.5l-0.453-0.455l0.454-0.452l0.206-0.206v-0.293v-0.206l0.972-0.509l0.27-0.139l0.083-0.296l2.119-7.559
			l0.146-0.524l-0.468-0.273C129.669,97.586,126.785,97.167,125.225,97.164L125.225,97.164z M125.223,101.278
			c-0.195,0-0.354-0.156-0.354-0.352c0-0.194,0.159-0.354,0.354-0.354s0.353,0.159,0.354,0.356
			C125.576,101.122,125.418,101.278,125.223,101.278L125.223,101.278z"/>
	</g>
</g>
<linearGradient id="SVGID_7_" gradientUnits="userSpaceOnUse" x1="172.1162" y1="103.1914" x2="197.5957" y2="103.1914">
	<stop  offset="0" style="stop-color:#005E98"/>
	<stop  offset="1" style="stop-color:#001F54"/>
</linearGradient>
<path fill="url(#SVGID_7_)" d="M196.544,101.284h-0.963c-0.11-0.621-0.274-1.222-0.485-1.804l0.835-0.481
	c0.503-0.291,0.676-0.933,0.386-1.438l-0.854-1.479c-0.291-0.504-0.934-0.677-1.438-0.386l-0.83,0.48
	c-0.403-0.479-0.845-0.921-1.322-1.323l0.479-0.83c0.29-0.505,0.118-1.146-0.385-1.438l-1.48-0.854
	c-0.504-0.29-1.146-0.119-1.437,0.385l-0.481,0.835c-0.583-0.21-1.183-0.375-1.806-0.484v-0.962c0-0.581-0.471-1.052-1.053-1.052
	H184c-0.581,0-1.053,0.471-1.053,1.052v0.963c-0.621,0.108-1.223,0.273-1.803,0.483l-0.481-0.835
	c-0.291-0.504-0.933-0.674-1.438-0.385l-1.48,0.855c-0.504,0.29-0.677,0.933-0.384,1.436l0.479,0.829
	c-0.478,0.403-0.919,0.846-1.322,1.323l-0.831-0.479c-0.504-0.291-1.145-0.118-1.438,0.387l-0.854,1.479
	c-0.291,0.505-0.119,1.147,0.385,1.437l0.835,0.481c-0.211,0.582-0.375,1.183-0.485,1.805h-0.962c-0.581,0-1.052,0.472-1.052,1.053
	v1.709c0,0.582,0.471,1.053,1.052,1.053h0.962c0.11,0.621,0.273,1.223,0.484,1.804l-0.834,0.481
	c-0.504,0.291-0.676,0.934-0.385,1.438l0.855,1.48c0.29,0.503,0.934,0.675,1.436,0.384l0.83-0.479
	c0.401,0.479,0.846,0.921,1.322,1.324l-0.478,0.828c-0.292,0.504-0.12,1.146,0.384,1.438l1.481,0.854
	c0.503,0.291,1.146,0.117,1.437-0.386l0.481-0.834c0.58,0.21,1.182,0.374,1.803,0.483v0.963c0,0.581,0.472,1.052,1.053,1.052h1.709
	c0.582,0,1.053-0.471,1.053-1.052v-0.962c0.622-0.109,1.223-0.274,1.805-0.484l0.481,0.834c0.291,0.503,0.934,0.677,1.438,0.386
	l1.48-0.856c0.504-0.29,0.675-0.934,0.385-1.437l-0.479-0.83c0.478-0.401,0.92-0.844,1.322-1.322l0.828,0.479
	c0.505,0.29,1.147,0.119,1.438-0.384l0.855-1.483c0.29-0.502,0.116-1.146-0.386-1.436l-0.835-0.482
	c0.211-0.581,0.375-1.182,0.485-1.803h0.963c0.581,0,1.052-0.471,1.052-1.053v-1.709
	C197.596,101.756,197.125,101.284,196.544,101.284z M184.855,108.382c-2.866,0-5.19-2.323-5.19-5.19c0-2.865,2.324-5.189,5.19-5.189
	c2.867,0,5.189,2.324,5.189,5.189C190.045,106.059,187.723,108.382,184.855,108.382z"/>
<line opacity="0.8" fill="none" stroke="#F36B3E" stroke-width="3" stroke-linecap="round" stroke-linejoin="round" stroke-miterlimit="10" enable-background="new    " x1="135.594" y1="103.887" x2="166.116" y2="103.887"/>
<path opacity="0.8" fill="none" stroke="#F36B3E" stroke-width="3" stroke-linecap="round" stroke-linejoin="round" stroke-miterlimit="10" enable-background="new    " d="
	M204.051,103.887c0,0,13.268,0,15.185,0c5.667,0,8.333-3.084,8.333-9.416c0-6.592,0-3.137,0-5.5"/>
<path opacity="0.8" fill="none" stroke="#F36B3E" stroke-width="3" stroke-linecap="round" stroke-linejoin="round" stroke-miterlimit="10" enable-background="new    " d="
	M73.32,88.971c0,2.363,0-1.092,0,5.5c0,6.332,2.666,9.416,8.333,9.416c1.917,0,15.185,0,15.185,0"/>
</svg>
