<?xml version="1.0" encoding="utf-8"?>
<!-- Generator: Adobe Illustrator 16.0.0, SVG Export Plug-In . SVG Version: 6.00 Build 0)  -->
<!DOCTYPE svg PUBLIC "-//W3C//DTD SVG 1.1//EN" "http://www.w3.org/Graphics/SVG/1.1/DTD/svg11.dtd">
<svg version="1.1" id="Layer_1" xmlns="http://www.w3.org/2000/svg" xmlns:xlink="http://www.w3.org/1999/xlink" x="0px" y="0px"
	 width="290px" height="126px" viewBox="0 0 290 126" enable-background="new 0 0 290 126" xml:space="preserve">
<linearGradient id="SVGID_1_" gradientUnits="userSpaceOnUse" x1="40.2495" y1="9.8535" x2="40.2495" y2="113.3066">
	<stop  offset="0" style="stop-color:#005E98"/>
	<stop  offset="1" style="stop-color:#001F54"/>
</linearGradient>
<circle fill="url(#SVGID_1_)" cx="40.25" cy="63.463" r="31.001"/>
<line opacity="0.8" fill="none" stroke="#F36B3E" stroke-width="3" stroke-linecap="round" stroke-linejoin="round" stroke-miterlimit="10" enable-background="new    " x1="78.75" y1="63.046" x2="109.75" y2="63.046"/>
<line opacity="0.8" fill="none" stroke="#F36B3E" stroke-width="3" stroke-linecap="round" stroke-linejoin="round" stroke-miterlimit="10" enable-background="new    " x1="173.297" y1="63.046" x2="204.297" y2="63.046"/>
<linearGradient id="SVGID_2_" gradientUnits="userSpaceOnUse" x1="29.7505" y1="101.9434" x2="29.7505" y2="-169.8524" gradientTransform="matrix(1 0 0 -1 219 129.5)">
	<stop  offset="0" style="stop-color:#005E98"/>
	<stop  offset="1" style="stop-color:#004D87"/>
</linearGradient>
<path fill="url(#SVGID_2_)" d="M275.77,23.398c1.506,0,2.73,1.241,2.73,2.767v71.668c0,1.526-1.227,2.768-2.73,2.768h-54.037
	c-1.506,0-2.731-1.241-2.731-2.768V26.166c0-1.526,1.226-2.767,2.731-2.767H275.77 M275.77,20.148h-54.037
	c-3.303,0-5.981,2.694-5.981,6.017v71.668c0,3.324,2.681,6.018,5.981,6.018h54.037c3.301,0,5.98-2.693,5.98-6.018V26.166
	C281.75,22.842,279.07,20.148,275.77,20.148L275.77,20.148z"/>
<path fill="#FFFFFF" d="M46.052,67.922c-1.937-0.499-2.017-4.293-1.221-5.302c1.257-1.592,3.066-4.021,3.146-8.533
	c0.081-4.591-2.309-10.175-7.728-10.175s-7.809,5.584-7.728,10.175c0.08,4.513,1.889,6.941,3.146,8.533
	c0.796,1.009,0.716,4.804-1.221,5.302c-2.426,0.624-12.421,3.084-12.421,7.543c0,1.991,0,2.459,0,2.459h18.224h18.224
	c0,0,0-0.468,0-2.459C58.473,71.006,48.478,68.545,46.052,67.922z"/>
<path fill="#FFFFFF" d="M58.473,78.094c0,1.315-1.067,2.383-2.382,2.383H24.407c-1.315,0-2.382-1.067-2.382-2.383v-0.246
	c0-1.315,1.067-2.383,2.382-2.383h31.684c1.315,0,2.382,1.067,2.382,2.383V78.094z"/>
<linearGradient id="SVGID_3_" gradientUnits="userSpaceOnUse" x1="137.4224" y1="97.543" x2="137.4224" y2="25.6264">
	<stop  offset="0" style="stop-color:#005E98"/>
	<stop  offset="1" style="stop-color:#001F54"/>
</linearGradient>
<path fill="url(#SVGID_3_)" d="M151.339,56.984V46.775c0-4.447-3.606-8.052-8.053-8.052h-11.934c-4.447,0-8.052,3.605-8.052,8.052
	v10.209h-3.285v24.842h34.814V56.984H151.339z M129.482,48.932c0-1.906,1.545-3.451,3.451-3.451h8.771
	c1.906,0,3.451,1.545,3.451,3.451v8.052h-15.673V48.932z"/>
<path fill="#FFFFFF" d="M140.244,66.575c0-1.56-1.264-2.823-2.823-2.823s-2.823,1.264-2.823,2.823c0,0.943,0.468,1.774,1.181,2.287
	l0.552,4.657l1.083,1.15l1.098-1.15l0.552-4.657C139.776,68.35,140.244,67.519,140.244,66.575z"/>
<g>
	<linearGradient id="SVGID_4_" gradientUnits="userSpaceOnUse" x1="146.5605" y1="69.3076" x2="164.9697" y2="69.3076">
		<stop  offset="0" style="stop-color:#005E98"/>
		<stop  offset="1" style="stop-color:#001F54"/>
	</linearGradient>
	<path fill="url(#SVGID_4_)" d="M152.313,82.343V69.229l-2.117-1.105l-3.636-12.989l0.382-0.224
		c1.759-1.034,6.399-1.702,8.821-1.707c2.426,0.005,7.067,0.673,8.825,1.707l0.381,0.225l-3.64,12.989l-2.114,1.104v0.922
		l-1.313,1.315l1.552,1.552l-1.551,1.551l1.551,1.553l-1.551,1.551l1.551,1.553l-1.551,1.551l1.446,1.448l-3.585,3.188
		L152.313,82.343z M155.765,57.611c-0.635,0-1.15,0.517-1.15,1.151c0,0.634,0.516,1.15,1.15,1.15c0.634,0,1.151-0.516,1.152-1.151
		C156.916,58.128,156.398,57.611,155.765,57.611z"/>
	<path fill="#FFFFFF" d="M155.765,53.778c2.431,0.005,6.927,0.683,8.532,1.627l-3.453,12.324l-2.203,1.15v1.032l-1.551,1.554
		l1.551,1.552l-1.551,1.551l1.551,1.553l-1.551,1.55l1.551,1.554l-1.551,1.551l1.422,1.424l-2.747,2.443l-2.876-2.558V68.88
		l-2.206-1.151l-3.449-12.323C148.84,54.461,153.334,53.784,155.765,53.778 M155.765,60.488c0.952,0,1.726-0.773,1.728-1.725
		c-0.002-0.954-0.775-1.727-1.728-1.727c-0.953,0-1.726,0.772-1.726,1.727C154.039,59.715,154.812,60.488,155.765,60.488
		 M155.768,52.628h-0.003h-0.003c-2.545,0.006-7.243,0.688-9.111,1.786l-0.764,0.449l0.239,0.853l3.449,12.323l0.134,0.479
		l0.441,0.23l1.588,0.829v12.508v0.517l0.386,0.343L155,85.502l0.765,0.68l0.765-0.68l2.747-2.443l0.91-0.81l-0.86-0.862l-0.61-0.61
		l0.738-0.738l0.812-0.812l-0.812-0.813l-0.739-0.74l0.738-0.737l0.813-0.812l-0.813-0.813l-0.738-0.739l0.738-0.738l0.813-0.813
		l-0.813-0.813l-0.738-0.739l0.739-0.74l0.336-0.337v-0.476v-0.335l1.585-0.828l0.441-0.23l0.134-0.479l3.453-12.324l0.239-0.853
		l-0.764-0.449C163.013,53.316,158.313,52.634,155.768,52.628L155.768,52.628z M155.765,59.337c-0.317,0-0.575-0.258-0.575-0.575
		c0-0.318,0.258-0.576,0.575-0.576s0.576,0.259,0.577,0.579C156.341,59.079,156.082,59.337,155.765,59.337L155.765,59.337z"/>
</g>
<path opacity="0.15" fill="#001F54" enable-background="new    " d="M273.5,32.208c0,0.553-0.446,1-1,1h-47.333
	c-0.552,0-1-0.447-1-1v-3c0-0.553,0.448-1,1-1H272.5c0.554,0,1,0.447,1,1V32.208L273.5,32.208z"/>
<path opacity="0.15" fill="#001F54" enable-background="new    " d="M239.167,94.667c0,0.553-0.448,1-1,1h-13c-0.552,0-1-0.447-1-1
	V39.208c0-0.553,0.448-1,1-1h13c0.552,0,1,0.447,1,1V94.667z"/>
<path opacity="0.08" fill="#001F54" enable-background="new    " d="M244.167,39.085c0-0.553,0.446-1,1-1H272.5c0.554,0,1,0.447,1,1
	v55.582c0,0.553-0.446,1-1,1h-27.333c-0.554,0-1-0.447-1-1V39.085z"/>
</svg>
