<?xml version="1.0" encoding="utf-8"?>
<!-- Generator: Adobe Illustrator 16.0.0, SVG Export Plug-In . SVG Version: 6.00 Build 0)  -->
<!DOCTYPE svg PUBLIC "-//W3C//DTD SVG 1.1//EN" "http://www.w3.org/Graphics/SVG/1.1/DTD/svg11.dtd">
<svg version="1.1" id="Layer_1" xmlns="http://www.w3.org/2000/svg" xmlns:xlink="http://www.w3.org/1999/xlink" x="0px" y="0px"
	 width="290px" height="126px" viewBox="0 0 290 126" enable-background="new 0 0 290 126" xml:space="preserve">
<path opacity="0.05" fill="#001F54" enable-background="new    " d="M267.5,96.5c0,5.522-4.478,10-10,10H33c-5.523,0-10-4.478-10-10
	v-67c0-5.523,4.477-10,10-10h224.5c5.522,0,10,4.477,10,10V96.5z"/>
<linearGradient id="SVGID_1_" gradientUnits="userSpaceOnUse" x1="199.5605" y1="34.5981" x2="199.5605" y2="92.4582">
	<stop  offset="0" style="stop-color:#005F98"/>
	<stop  offset="1" style="stop-color:#1A2451"/>
</linearGradient>
<path fill="url(#SVGID_1_)" d="M209.577,85.986c-0.006-0.004-1.859-0.436-1.888-0.443c-0.365-0.064-0.728-0.225-1.197-0.466
	c-0.415-0.209-0.87-0.358-0.987-0.47c-0.249-0.238-0.649-0.461-0.885-0.729c-0.042-0.05-0.219-0.003-0.259-0.052
	c-0.133-0.16-0.077-0.052-0.197-0.212c-0.078-0.105-0.155-0.212-0.229-0.313c-0.11-0.157-0.216-0.313-0.317-0.47
	c-0.066-0.104-0.134-0.208-0.196-0.31c-0.097-0.162-0.185-0.323-0.271-0.48c-0.052-0.098-0.108-0.196-0.157-0.294
	c-0.013-0.024-0.022-0.05-0.036-0.074c-3.544-6.785,0.448-10.096,0.735-10.32c0.116-0.106,0.237-0.208,0.372-0.301
	c0.012-0.009,0.024-0.017,0.036-0.024c0.074-0.05,0.148-0.096,0.229-0.14c0.013-0.008,0.027-0.016,0.044-0.024
	c0.085-0.047,0.175-0.09,0.269-0.128c0.003-0.003,0.008-0.004,0.014-0.007c0.205-0.085,0.427-0.149,0.666-0.19
	c0.009-0.001,0.016-0.001,0.025-0.004c0.107-0.019,0.22-0.028,0.336-0.037c0.02,0,0.036,0,0.057-0.001
	c0.111-0.006,0.229-0.006,0.349,0c0.014,0.001,0.028,0.001,0.044,0.001c0.278,0.017,0.574,0.062,0.891,0.142
	c0.001,0,0.001,0,0.001,0c0.257,0.116,0.521,0.222,0.795,0.315c0.049,0.018,0.099,0.032,0.149,0.05
	c0.214,0.071,0.435,0.136,0.659,0.194c0.081,0.022,0.164,0.043,0.246,0.062c0.207,0.05,0.417,0.091,0.634,0.128
	c0.083,0.015,0.166,0.033,0.251,0.045c0.236,0.034,0.478,0.062,0.724,0.084c-0.178-0.001-0.357-0.006-0.538-0.017
	c0.441,0.011,1.199,0.091,0.993,0.147c0.28-0.003,0.56-0.019,0.837-0.045l-0.041,0.073c1.402-0.103,2.385-0.242,3.747-0.751
	l-0.541,0.099c0.418-0.129,0.821-0.301,1.213-0.474c0.23-0.091,0.461-0.191,0.691-0.295c0.13-0.052,0.26-0.107,0.387-0.154
	c-0.331,0.189-0.071,0.104-0.044,0.138c0.171-0.099,0.353-0.219,0.566-0.32l-0.293,0.289c0.133-0.155,0.64-0.431,1.138-0.729
	c0.497-0.292,0.987-0.605,1.135-0.728l-0.086,0.089c1.057-0.697-0.218,0.08,0.469-0.426c0.588-0.426,0.301-0.056,0.858-0.442
	c0.494-0.413,1.126-1.025,1.718-1.696c0.597-0.667,1.15-1.393,1.59-1.97c0.629-0.966,1.175-2.125,1.493-3.104
	c0.356-0.96,0.112,0.099,0.396-0.9c0.005,0.122,0.094-0.004,0.162-0.082c-0.001-0.058,0.098-0.383,0.174-0.696
	c0.113-0.446,0.192-0.857,0.022-0.398c0.062-0.239,0.108-0.495,0.158-0.746c-0.077,0.012-0.166,0.014-0.271-0.001
	c0-0.197,0-0.395,0-0.592c0.128,0,0.254,0,0.381,0c0.173-1.106,0.232-2.278,0.146-3.388c0.034,0.521,0.113,0.663,0.137,0.215
	c-0.104-0.732-0.272-1.999-0.55-3.294c-0.073,0.042,0.016,0.461-0.09,0.342c-0.052-0.188-0.153-0.489-0.229-0.806
	c0.028-0.203,0.188-0.185-0.158-1.321c0.242,0.257,0.525,1.95,0.514,1.396c0.112,0.244,0.293,0.894,0.404,1.554
	c0.116,0.66,0.165,1.324,0.15,1.572c0.188,1.055-0.052-0.838,0.06-0.651c-0.13-0.961-0.242-1.401-0.622-2.846
	c-0.059-0.002,0.062,0.484-0.156-0.163c-0.473-1.232-0.421-1.594-0.526-1.913c0.08,0.175,0.172,0.425,0.247,0.606
	c-0.254-0.839-0.435-1.102-0.795-1.953c0.047-0.297,0.594,1.358,0.773,1.654l-0.133-0.669c-0.528-1.335-0.245-0.322-0.813-1.687
	l0.124,0.139c-0.138-0.274-0.282-0.546-0.429-0.814c-0.059,0.013-0.037,0.221,0.305,0.932c-0.35-0.404-0.313-0.653-0.926-1.738
	c-0.264-0.312,0.258,0.46,0.194,0.522c-0.008,0.144-0.402-0.61-0.729-1.14c-0.517-0.873-0.196-0.505-0.362-0.875
	c0.115,0.145,0.532,0.834,0.446,0.78c0.699,1.052-0.126-0.562,0.357,0.167c-0.271-0.533-0.397-0.692-0.533-0.858
	c-0.089-0.096-0.164-0.187-0.284-0.352c0.18,0.286-0.141-0.066-0.044,0.135c-0.551-0.648-0.693-0.882-0.794-1.132
	c-0.112-0.243-0.192-0.508-0.739-1.115c0.061,0.177-0.332-0.204-0.671-0.48c-0.337-0.282-0.608-0.47-0.252,0
	c-0.286-0.261-0.658-0.572-0.941-0.851c0.383,0.215-0.481-0.533,0.144-0.095c-0.142-0.134-0.294-0.259-0.44-0.389
	c0.249,0.163,0.496,0.331,0.737,0.506c-0.425-0.502-1.232-1.246-1.489-1.489c-0.713-0.477,0.163,0.229-0.652-0.336
	c0.311,0.161-0.162-0.23-0.53-0.472c0.707,0.528-0.061,0.114-0.541-0.159c-0.734-0.458-1.304-0.858-1.18-0.819
	c0.259,0.109,0.515,0.227,0.771,0.345c-0.594-0.259-0.223-0.18-0.812-0.468c-0.188-0.044-0.582-0.156-0.805-0.188
	c-0.503-0.224-0.829-0.448-1.013-0.513c0.275,0.097,0.545,0.207,0.82,0.314c-1.055-0.47-0.159-0.248-1.265-0.689l-0.312-0.048
	c-0.208-0.1-0.308-0.17-0.087-0.117c-0.189-0.018-0.815-0.267-1.097-0.343l-0.059-0.074c-0.478-0.127-1.099-0.217-1.648-0.469
	c0.419,0.246,0.576,0.162,1.363,0.479c0.471,0.246-0.816-0.184-1.005-0.22c0.088-0.11-1.216-0.364-1.796-0.482
	c-0.326-0.119-0.615-0.205-0.82-0.271l-0.243,0.04c-0.187-0.211-1.169-0.171-1.827-0.306c0.346-0.006,0.306-0.077-0.162-0.16
	c0.618,0.194-1.05,0.029-0.868,0.139c-1.193-0.145,0.292-0.13-0.053-0.248c-0.603,0.04-1.337-0.163-1.741-0.053
	c0.87,0.076-0.142,0.07-0.321,0.12c-1.094-0.035,0.183-0.05-0.591-0.111c-0.459,0.015-1.053,0.111-0.347,0.145
	c-0.637-0.027-1.35,0.106-2.064,0.08c-0.297-0.068,1.332-0.103,0.918-0.135c-1.518,0.066-0.75,0.213-2.147,0.359
	c0.602-0.014,0.042,0.166-0.616,0.294c-1.535,0.165,0.658-0.133,0.063-0.152l-0.609,0.093c-0.437-0.004,0.006-0.129,0.461-0.237
	c0.454-0.11,0.918-0.2,0.501-0.214l-0.666,0.124c0.144-0.055,0.352-0.149,0.069-0.152c-0.159,0.105-1.562,0.248-1.679,0.303
	c-0.126,0.1,0.538-0.119,0.44-0.037c-0.708,0.145-0.997,0.323-2.083,0.523c0.579-0.189-0.249-0.053-0.016-0.152
	c-0.534,0.099-0.145,0.126-0.904,0.28l0.072-0.068c-1.397,0.361-2.941,0.891-4.37,1.555c-1.429,0.659-2.739,1.46-3.716,2.228
	c-0.398,0.178-1.129,0.657-2.176,1.453c0,0.001,0,0.003,0.001,0.005c0.088-0.057,0.073-0.026,0.005,0.048
	c0.009,0.11,0.009,0.228,0.002,0.355c-0.173-0.025-0.264,0.033-0.297,0.148c-0.079-0.006-0.14-0.032-0.185-0.074l-0.467,0.312
	c-0.668,0.522-1.393,1.355-1.879,1.958c-0.105,0.088-0.153,0.103-0.199,0.115c-0.546,0.51-0.48,0.609-0.652,0.839l-0.365,0.331
	l-0.02,0.119c-0.454,0.597-1.062,1.375-1.086,1.237c-0.159,0.247-0.316,0.49-0.07,0.209c-0.506,0.551-1.656,2.246-2.275,3.439
	c0.335-0.536,0.342-0.471,0.422-0.483c-0.003,0.22-0.173,0.249-0.381,0.746c-0.042-0.01-0.372,0.503-0.084-0.082
	c-1.012,1.489-1.974,3.822-2.674,5.96c-0.127,0.438-0.061,0.312-0.1,0.531c-0.027,0.072-0.055,0.151-0.081,0.226
	c0.275-0.066,0.672-0.38,0.624,0.158c0.062-0.107,0.226-0.201,0.295-0.297c0.172-0.231,0.302-0.385,1.037-0.295
	c0.293,0.488,0.503,0.768,0.444,1.333c-0.052,0.491-0.66,0.711-0.594,1.184c-0.177-0.021-0.169-0.385-0.295-0.443
	c-0.144-0.069-0.468,0.093-0.593,0c-0.128-0.099-0.196-0.312-0.295-0.445c-0.157-0.209-0.599-0.528-0.712-0.951
	c-0.417,1.253-0.655,2.767-0.873,4.106c0.095-0.333,0.143,0.163,0.062,1.006c0.012,0.931-0.166,0.358-0.27,1.194
	c0.015,0.421,0.015,1.208,0.013,1.54l-0.017-0.025c0.051,0.514,0.108,1.319,0.117,1.929l-0.014-0.095
	c0.034,0.498,0.034,1.082,0.119,1.601c0.103,0.221,0.278,1.483,0.427,1.771c0.005,0.062-0.021-0.031-0.011,0.109l0.082,0.029
	c0.059,0.338,0.133,0.676,0.205,1.013c-0.086-0.211-0.125-0.256-0.216-0.532c0.224,1.084,0.157,0.345,0.346,0.896
	c0.268,0.729,0.188,0.699,0.271,1.064c-0.133-0.294-0.149-0.542-0.22-0.721c-0.182-0.399,0.113,0.447,0.078,0.475
	c0.044,0.155,0.152,0.199,0.312,0.742c0.143,0.469,0.565,1.533,0.444,1.43c0.19,0.378,0.365,0.839,0.521,1.115
	c-0.145-0.371-0.389-1.059-0.374-1.157c0.139,0.335,0.425,0.987,0.44,1.102l-0.129-0.258c0.122,0.262,0.525,1.235,0.372,0.707
	l0.217,0.722c0.171,0.229,0.489,0.913,0.792,1.451c-0.054,0.06-0.375-0.336,0.16,0.692c0.182,0.278,0.372,0.553,0.562,0.823
	c0.274,0.446,0.334,0.57,0.249,0.525c0.93,1.539,1.184,1.417,1.962,2.581c-0.435-0.418-0.147-0.014,0.228,0.499
	c0.027,0.013,0.09,0.037,0.257,0.235c-0.082-0.165-0.288-0.246-0.535-0.668c-0.045-0.155,0.384,0.435,0.586,0.644
	c0.315,0.548,0.987,1.35,1.791,2.16c0.804,0.812,1.735,1.627,2.504,2.299c-0.04-0.171,0.736,0.536,1.1,0.745
	c-0.174,0.024,0.94,0.651,1.374,1.001l-0.192-0.266c1.002,0.735,1.807,0.897,2.413,1.381c0.604,0.352-0.25-0.028-0.513-0.157
	c0.78,0.59,2.34,1.061,2.999,1.466c0.097-0.015-0.145-0.185,0.65,0.077c0.604,0.297,1.859,0.758,1.737,0.737
	c0.537,0.136,0.69,0.142,1.266,0.335c-0.061,0.015-0.317-0.044-0.505-0.085c0.923,0.285,1.696,0.398,2.534,0.504
	c0.494,0.191,2.187,0.378,3.289,0.464c0.631-0.071,1.793,0.073,1.877-0.071c-0.025,0.016,0.113,0.029,0.184,0.036
	c0.41-0.048,0.739-0.153,1.259-0.189l-0.162,0.104c-0.117,0.135,1.485-0.081,1.64-0.051c-0.458-0.031,0.589-0.061,0.619-0.142
	l0.607-0.111c0.967-0.175,0.109-0.054,1.298-0.273c0.673-0.135,0.249,0.064,0.015,0.096c0.569-0.058,1.129-0.203,1.693-0.359
	c-0.19,0.045-0.253,0.051-0.064-0.011c0.016,0.008,0.07,0.001,0.139-0.011c0.217-0.059,0.437-0.123,0.658-0.181
	c-0.005,0.002-0.005,0.005-0.008,0.007c-0.238,0.069-0.459,0.129-0.623,0.17c0.15-0.028,0.376-0.086,0.612-0.146
	c0.02,0.003,0.09-0.018,0.19-0.05c0.19-0.049,0.37-0.093,0.489-0.114l-0.141,0.116c0.415-0.105,1.504-0.544,1.458-0.566
	c0.141-0.039,0.299-0.093,0.454-0.143c0.026-0.065,0.057-0.124,0.093-0.176c0.19-0.057,0.305-0.039,0.385,0.015
	c0.699-0.248,1.463-0.558,2.16-0.887c0.809-0.375,1.514-0.768,1.941-1.023c-0.175,0.117-0.182,0.144-0.007,0.021
	c0.5-0.285,1.017-0.675,1.089-0.664c0.377-0.268,0.451-0.246,0.868-0.509c0.05-0.012,0.1-0.021,0.147-0.033l-0.023-0.048
	c0.042-0.03,0.078-0.054,0.127-0.086c0.103-0.071,0.156-0.196,0.13-0.327c-0.036-0.17-0.204-0.281-0.375-0.246l-0.022,0.006
	l-0.075,0.017c-0.017-0.011-0.065,0.055,0.034,0.052c-0.028,0.003-0.059,0.007-0.088,0.012l-0.04-0.086
	c-0.051,0.039-0.105,0.076-0.158,0.114c-1.327,0.202-2.956,0.534-4.528,0.552c0.142-0.016,0.331-0.067,0.461-0.098
	c-1.304,0.118-2.549,0.163-3.729,0.207c0.123-0.029,0.088-0.06,0.399-0.069c-0.908-0.021-1.96-0.081-2.388-0.058
	c0.613,0.09,0.046-0.034,0.462,0.005c0.645,0.115-0.527,0.098-1.123,0.006l-0.015-0.019c-0.904-0.11-0.952-0.076-1.85-0.225
	c-0.531-0.136,0.472,0.062,0.263-0.021c-0.193-0.135-2.02-0.463-2.193-0.541c-0.215-0.023-0.52-0.085-0.493-0.046
	c-0.695-0.156-0.296-0.15-0.769-0.28c-0.598-0.106-1.191-0.238-1.783-0.387c-0.05-0.019-0.1-0.038-0.147-0.056
	c-0.094-0.074-0.441-0.263,0.026-0.116c-0.862-0.324-1.502-0.547-2.065-0.756c-0.951-0.46-1.887-1-2.801-1.613
	c0.118,0.04-0.273-0.305,0.075-0.109c-0.267-0.151-0.648-0.421-1.064-0.743c0,0.017,0,0.031,0,0.047
	c-0.598,0.152-0.657-0.229-0.889-0.441c0.032-0.084,0.074-0.16,0.128-0.224c-0.424-0.359-0.833-0.735-1.146-1.06
	c0.249,0.33-0.054,0.073-0.414-0.266c-0.313-0.297-0.667-0.662-0.766-0.707c-0.202-0.223-0.397-0.461-0.594-0.694
	c-0.054-0.114,0.05-0.069-0.133-0.309c-0.95-1.088-1.687-2.254-2.345-3.388c0,0,0.006-0.024,0.048,0.032
	c-0.628-0.993-1.38-2.72-1.847-3.844c-0.01-0.026-0.02-0.054-0.03-0.082c0.031,0.022,0.029-0.051,0.139,0.216
	c-0.188-0.617-0.234-0.665-0.295-0.736c-0.004-0.005-0.008-0.011-0.011-0.016c-0.079-0.258-0.15-0.513-0.216-0.768l0.091,0.201
	c-0.258-0.771-0.349-1.543-0.505-2.414c-0.032-0.002-0.064-0.003-0.097-0.006c0.032-0.035,0.06-0.065,0.077-0.096
	c-0.016-0.083-0.026-0.162-0.045-0.248c-0.002-0.014-0.003-0.028-0.004-0.044c0.021-0.014,0.048,0.113,0.074,0.237
	c0.004-0.005,0.006-0.011,0.007-0.015c-0.013-0.088-0.024-0.18-0.036-0.271c-0.032-0.08-0.068-0.175-0.073-0.304
	c0.013-0.001,0.023-0.001,0.035-0.002c-0.061-0.576-0.095-1.162-0.123-1.689c0-0.179,0.002-0.357,0.007-0.534
	c0.023,0.024,0.039,0.161,0.058,0.421c0.047-0.704-0.017-0.942-0.003-1.361c0.019-0.223,0.041-0.445,0.067-0.664
	c0.037-0.219,0.107-0.493,0.115-0.48c0.005-0.313,0.127-0.983,0.245-1.531c0.059-0.245,0.121-0.489,0.189-0.73
	c0.069-0.149,0.17-0.445,0.35-0.871c0.492-1.456,1.179-2.858,2.02-4.163c0-0.029,0-0.058,0-0.087
	c0.021-0.002,0.034,0.005,0.054,0.006c0.46-0.708,0.964-1.388,1.513-2.03c1.532-1.793,3.386-3.326,5.479-4.363
	c0.081-0.038,0.164-0.073,0.245-0.109c0.288-0.068,0.057,0.047-0.201,0.181c-0.28,0.145-0.588,0.316-0.344,0.237
	c-0.073-0.061,0.691-0.44,2.066-0.883l0.061-0.001c0.592-0.179,0.944-0.183,1.597-0.282l-0.024-0.025
	c0.71-0.144,1.548,0.137,1.925,0.092c0.173,0.059,0.34,0.128,0.502,0.203c0.686,0.112,1.019,0.412,1.816,0.708l-0.098-0.027
	c0.501,0.285,1.02,0.58,1.419,0.894c0.401,0.309,0.672,0.647,0.771,0.85c0.302,0.387,0.576,0.841,0.71,1.246
	c0.08,0.224,0.115,0.422,0.138,0.576c0.006,0.12-0.002,0.243-0.015,0.367c-0.023-0.017-0.041-0.097-0.053-0.177
	c-0.016,0.524-0.231,1.039-0.521,1.5c-0.291,0.465-0.651,0.893-1.037,1.298c-0.176,0.192-0.364,0.375-0.558,0.555
	c0.027,0.101-0.032,0.24-0.19,0.178c-0.396,0.364-0.796,0.724-1.139,1.131c-1.544,0.991-9.511,6.36-9.138,13.924
	c0.364,7.388,4.291,10.113,8.738,12.59c0.479,0.267,1.59,0.592,2.07,0.822c0.775,0.352,1.402,0.426,1.638,0.493
	C206.245,85.817,207.754,86.05,209.577,85.986z M178.562,62.875c0.528-0.086,0.448,0.438,0.442,0.887
	C178.233,63.804,178.211,63.277,178.562,62.875z M175.896,64.799C176.577,64.896,175.778,65.693,175.896,64.799L175.896,64.799z
	 M176.34,64.502c-0.26-0.036-0.338-0.255-0.295-0.593c0.148,0,0.295,0,0.443,0C176.551,64.22,176.387,64.304,176.34,64.502z
	 M176.685,60.008c-0.4,0.163-0.761,0.028-1.186-0.147c0-0.296,0-0.592,0-0.889c0.196-0.147,0.445-0.242,0.592-0.443
	c0.119,0.104,0.406,0.23,0.443,0C177.033,58.788,176.745,59.503,176.685,60.008z M178.163,70.962
	c-0.127-0.473,0.128-0.563,0.297-0.74C178.963,70.286,178.805,71.188,178.163,70.962z M179.052,65.041
	c-0.637,0.092-0.954-0.132-1.187-0.444c-0.053-0.862,0.84-1.074,1.332-0.594C179.285,64.485,179.099,64.693,179.052,65.041z
	 M179.645,53.94c-0.353-0.083-0.615-0.573-0.299-0.889c0.121,0.078,0.242,0.155,0.445,0.148
	C179.913,53.617,179.581,53.583,179.645,53.94z M180.532,59.269c-0.12-0.078-0.241-0.154-0.444-0.148
	c-0.128-0.472,0.232-0.458,0.296-0.74C180.789,58.383,180.735,59.078,180.532,59.269z M210.609,91.317
	c-0.115,0.038-0.252,0.083-0.4,0.132C210.357,91.397,210.5,91.35,210.609,91.317z M200.661,87.688
	c0.552-0.157,0.478,0.312,0.741,0.443c0.045,0.341-0.429,0.164-0.445,0.443C200.607,88.494,200.343,88.003,200.661,87.688z
	 M196.961,87.391c0.403-0.106,0.299,0.295,0.594,0.298c-0.079,0.118-0.155,0.238-0.15,0.443
	C196.842,88.261,196.711,87.64,196.961,87.391z M193.26,90.795c-0.58,0.235-0.305-0.383-0.593-0.443
	C192.84,89.957,193.452,90.338,193.26,90.795z M189.561,84.727c0.198,0,0.394,0,0.591,0
	C190.325,85.24,189.326,85.416,189.561,84.727z M188.089,77.654c0.12-0.126,0.405-0.088,0.446-0.296
	c0.13,0.114,0.332,0.159,0.591,0.15c0.081,0.262,0.075,0.611,0.296,0.739c-0.044,0.301-0.401,0.291-0.444,0.591
	c-0.425,0.207-0.752-0.403-0.889,0C187.651,78.58,188.176,78.05,188.089,77.654z M186.6,82.062c0.53-0.385,1.189,0.125,1.036,0.889
	c-0.426,0.272-0.462,0.242-1.036,0.149c0.116-0.179-0.146-0.257-0.148-0.298c-0.006-0.116,0.154-0.148,0.148-0.295
	C186.59,82.255,186.378,82.121,186.6,82.062z M181.419,56.16c-0.322-0.021-0.317-0.372-0.295-0.741c0.196,0,0.394,0,0.592,0
	C181.842,55.892,181.482,55.878,181.419,56.16z M182.012,66.521c0.462-0.066,0.473,0.316,0.442,0.74c-0.195,0-0.394,0-0.591,0
	C181.816,66.918,181.887,66.692,182.012,66.521z M181.863,77.771c0.368-0.016,0.458-0.277,0.74,0
	C182.748,78.366,181.717,78.366,181.863,77.771z M183.307,48.699c-0.464-0.027-0.498-0.488-0.445-1.037
	c0.475-0.127,0.46,0.233,0.742,0.295C183.714,48.414,183.197,48.244,183.307,48.699z M183.787,76.438
	C184.653,76.637,183.252,77.137,183.787,76.438L183.787,76.438z M184.378,49.352c0.364-0.348-0.222-0.275-0.146-0.739
	c0.293-0.247,0.188,0.012,0.59,0C184.853,49.035,184.842,49.42,184.378,49.352z M186.009,75.55c0,0.149,0,0.296,0,0.445
	c-0.195,0.188-0.547,0.188-0.741,0c-0.019-0.268,0.182-0.314,0.147-0.594C185.725,75.34,185.808,75.504,186.009,75.55z
	 M185.415,60.898c-0.067-0.464,0.129-0.663,0.594-0.594C186.076,60.767,185.88,60.966,185.415,60.898z M186.451,39.879
	c-0.1,0-0.197,0-0.296,0c0-0.099,0-0.197,0-0.296c0.099,0,0.196,0,0.296,0C186.451,39.682,186.451,39.78,186.451,39.879z
	 M186.6,43.58c0.417,0.027,0.631,0.256,0.593,0.739C186.554,44.495,186.305,43.891,186.6,43.58z M189.561,36.918
	c-0.021-0.465,0.379-0.509,0.741-0.593C190.763,36.982,189.787,37.768,189.561,36.918z M192.075,50.684
	c-0.06-0.357,0.272-0.322,0.149-0.74c0.302,0.258,0.289-0.11,0.592,0.149C192.932,50.667,192.327,50.917,192.075,50.684z
	 M194.148,46.096c-0.124-0.172-0.195-0.398-0.148-0.741c0.345-0.048,0.568,0.025,0.741,0.148
	C194.723,45.879,194.525,46.076,194.148,46.096z M196.665,37.214c0.211,0.197,0.211,0.839,0,1.036
	C195.502,38.411,195.695,37.112,196.665,37.214z M197.255,41.95c-0.25,0.007-0.381-0.108-0.44-0.296
	c-0.173-0.464,0.23-0.359,0.295-0.591c0.12,0.078,0.239,0.154,0.445,0.149C197.575,41.578,197.58,41.929,197.255,41.95z
	 M198.736,39.583c-0.385,0.042-0.637-0.054-0.591-0.444c0.132-0.116,0.333-0.16,0.591-0.148
	C198.736,39.187,198.736,39.385,198.736,39.583z M201.993,47.428c-0.173-0.024-0.263,0.032-0.295,0.147
	c-0.389-0.197-0.282-0.657-0.15-1.035c0.267-0.02,0.313,0.181,0.594,0.147C201.95,47.036,202.16,46.962,201.993,47.428z
	 M204.955,37.362c0.051-0.195,0.259-0.232,0.295-0.443C205.617,36.978,205.261,37.492,204.955,37.362z M205.361,45.294
	c0-0.246,0-0.493,0-0.739C206.276,44.515,206.172,45.733,205.361,45.294z M197.568,73.527c-0.402,0.108-0.296-0.294-0.59-0.294
	c0.003-0.405,0.699-0.353,0.889-0.147C197.187,75.607,197.2,75.693,197.568,73.527z M198.146,67.558
	c-0.309,0.292-0.983,0.111-1.331,0c0-0.345,0-0.692,0-1.037c0.263-0.179,0.86-0.024,1.034-0.295c0.168,0.027,0.083,0.148,0,0.146
	C198.206,66.637,198.307,67.156,198.146,67.558z M203.668,84.485c-0.199,0-0.396,0-0.594,0c-0.047-0.345,0.024-0.569,0.146-0.739
	C203.685,83.678,203.696,84.062,203.668,84.485z M201.999,61.493c-0.237-0.653,0.142-1.135,0.739-0.889
	C202.854,61.263,202.601,61.55,201.999,61.493z M203.326,66.226c-0.477,0.128-0.308-0.383-0.592-0.444
	c0.035-0.26,0.254-0.336,0.592-0.296C203.326,65.731,203.326,65.979,203.326,66.226z M205.551,63.121
	c-0.242-0.482-0.057-0.916,0.148-1.332c0.283,0.277,0.269-0.088,0.74,0c0.384,0.375,0.517,0.671,0.296,1.332
	C206.132,63.244,206.226,63.145,205.551,63.121z M206.286,69.631c-0.019-0.366-0.023-0.716,0.147-0.89
	c0.416,0.029,0.631,0.257,0.593,0.739C206.854,69.605,206.63,69.677,206.286,69.631z M207.174,44.762
	c-0.218-0.077-0.372-0.219-0.593-0.295c-0.019-0.266,0.183-0.312,0.149-0.593c0.309-0.063,0.392,0.102,0.591,0.148
	C207.444,44.442,207.114,44.406,207.174,44.762z M208.215,56.46c-0.323-0.31,0.075-0.421,0-0.888c0.15,0,0.297,0,0.445,0
	C208.934,55.863,208.879,56.661,208.215,56.46z M210.43,35.733c0.125,0.319,0.65,0.239,0.888,0.445c0,0.197,0,0.395,0,0.59
	c-0.265-0.016-0.312,0.183-0.592,0.15c0.114-0.784-0.386-0.141-0.59-0.444c-0.108-0.453,0.149-0.539,0.146-0.889
	C210.409,35.559,210.423,35.643,210.43,35.733z M210.726,38.99c0.04,0.482-0.174,0.713-0.59,0.739
	c-0.021-0.364-0.024-0.712,0.146-0.886C210.521,38.801,210.538,38.982,210.726,38.99z M209.543,35.29c0-0.296,0-0.592,0-0.888
	c0.265-0.018,0.312,0.181,0.593,0.147C210.196,35.056,210.09,35.394,209.543,35.29z M209.986,53.94
	c-0.032-0.542-0.204-0.568,0-1.037c0.132,0.091,0.265,0.179,0.296,0C210.771,52.961,210.726,54.221,209.986,53.94z M211.135,47.366
	c-0.12,0.127-0.405,0.088-0.444,0.296c-0.294-0.002-0.189-0.404-0.593-0.296c0.042-0.119,0.135-0.149,0.148-0.295
	c0.015-0.143-0.145-0.313-0.148-0.297c0.05-0.22,0.354-0.255,0.297-0.591c0.296,0,0.594,0,0.887,0
	C211.483,46.618,211.468,47.099,211.135,47.366z M211.613,60.6c0.312-0.062,0.394,0.103,0.593,0.148
	c-0.034,0.262-0.254,0.338-0.593,0.297C211.613,60.898,211.613,60.748,211.613,60.6z M212.774,71.521
	c-0.386,0.057-0.79,0.074-0.953,0.05c-0.047-0.006-0.068-0.013-0.069-0.021c0.314-0.013,0.637-0.038,0.962-0.082
	c-0.001,0.011,0.004,0.02,0.023,0.026c0.194-0.038,0.295-0.062,0.412-0.09c0.15-0.023,0.3-0.052,0.451-0.083
	C213.486,71.378,213.145,71.466,212.774,71.521z M214.983,43.814c0.376,0.018,0.573,0.215,0.591,0.591
	c-0.174,0.171-0.523,0.168-0.888,0.149C214.562,44.082,214.92,44.096,214.983,43.814z M214.723,67.114
	c-0.126-0.027-0.14,0.057-0.148,0.146c-0.097,0-0.196,0-0.294,0c0.026-0.127-0.058-0.139-0.15-0.146c0-0.1,0-0.198,0-0.296
	c0.127,0.026,0.14-0.059,0.15-0.147c0.098,0,0.197,0,0.294,0c-0.024,0.125,0.059,0.139,0.148,0.147
	C214.723,66.916,214.723,67.015,214.723,67.114z M215.611,56.604c0.12,0.553-0.912,0.275-1.037,0.147
	c0.114-0.38,0.474-0.515,1.037-0.443C215.611,56.408,215.611,56.504,215.611,56.604z M217.536,65.337
	c-0.262-0.035-0.338-0.254-0.296-0.591C217.543,64.831,217.855,65.029,217.536,65.337z M217.24,48.759
	c-0.064-0.573-0.162-0.527,0.146-0.889C218.064,47.742,217.979,49.04,217.24,48.759z M219.998,46.516
	c0.068,0.464-0.13,0.662-0.591,0.592c0.012-0.209,0.023-0.419-0.149-0.444C219.48,46.319,219.62,46.438,219.998,46.516z
	 M219.719,48.846c-0.291-0.101-0.393-0.393-0.442-0.74c0.118-0.126,0.405-0.087,0.442-0.294
	C220.257,47.91,219.959,48.672,219.719,48.846z M219.285,68.914c-0.095,0.055-0.178,0.103-0.249,0.146
	c0.101-0.065,0.203-0.133,0.303-0.201C219.321,68.878,219.304,68.896,219.285,68.914z M219.608,60.304
	c-0.017-0.007-0.291-0.137-0.297-0.146c-0.025-0.059,0.043-0.256,0-0.297c-0.108-0.099-0.357-0.03-0.444-0.148
	c-0.119-0.163-0.016-0.452-0.295-0.444c-0.037-0.531,0.444-0.543,0.443-1.035c0.482-0.087,0.688,0.099,1.037,0.147
	c-0.073,0.466,0.267,0.523,0.146,1.037c0.167,0.229,0.482,0.308,0.444,0.74C220.291,60.548,219.99,60.458,219.608,60.304z"/>
<g>
	<linearGradient id="SVGID_2_" gradientUnits="userSpaceOnUse" x1="63.4712" y1="63.3579" x2="83.3599" y2="63.3579">
		<stop  offset="0" style="stop-color:#005F98"/>
		<stop  offset="1" style="stop-color:#1A2451"/>
	</linearGradient>
	<path fill="url(#SVGID_2_)" d="M83.065,71.81c-0.195,1.176-0.644,2.277-1.345,3.301c-0.701,1.024-1.71,1.877-3.028,2.564
		c-1.317,0.685-3.097,1.031-5.34,1.031c-1.261,0-2.48-0.178-3.658-0.527c-1.177-0.35-2.228-0.895-3.154-1.639
		c-0.925-0.742-1.668-1.697-2.228-2.86c-0.562-1.161-0.841-2.572-0.841-4.226V66.85h5.971v1.344c0,0.729,0.056,1.402,0.168,2.019
		c0.113,0.616,0.308,1.143,0.588,1.577c0.28,0.435,0.666,0.776,1.156,1.027c0.491,0.253,1.129,0.38,1.914,0.38
		c0.868,0,1.542-0.154,2.019-0.461c0.476-0.311,0.82-0.71,1.03-1.199c0.21-0.49,0.336-1.023,0.378-1.6
		c0.042-0.573,0.063-1.127,0.063-1.66V48.01h6.601v20.562C83.36,69.554,83.262,70.633,83.065,71.81z"/>
	<linearGradient id="SVGID_3_" gradientUnits="userSpaceOnUse" x1="87.2695" y1="63.001" x2="112.542" y2="63.001">
		<stop  offset="0" style="stop-color:#005F98"/>
		<stop  offset="1" style="stop-color:#1A2451"/>
	</linearGradient>
	<path fill="url(#SVGID_3_)" d="M94.208,70.633c0.364,0.698,0.848,1.268,1.451,1.702s1.31,0.756,2.124,0.965
		c0.812,0.212,1.654,0.318,2.522,0.318c0.59,0,1.221-0.049,1.893-0.146c0.673-0.101,1.304-0.288,1.893-0.567
		c0.589-0.281,1.079-0.667,1.472-1.159c0.393-0.488,0.588-1.112,0.588-1.87c0-0.813-0.259-1.471-0.778-1.978
		c-0.52-0.503-1.198-0.923-2.04-1.26c-0.841-0.337-1.794-0.631-2.859-0.885c-1.065-0.251-2.144-0.531-3.237-0.839
		c-1.122-0.281-2.215-0.625-3.28-1.03c-1.065-0.407-2.018-0.934-2.859-1.578c-0.841-0.644-1.521-1.451-2.041-2.417
		c-0.518-0.967-0.778-2.138-0.778-3.511c0-1.542,0.33-2.88,0.99-4.016c0.657-1.136,1.52-2.082,2.585-2.838
		c1.065-0.757,2.271-1.318,3.616-1.682c1.347-0.364,2.691-0.546,4.036-0.546c1.57,0,3.077,0.175,4.521,0.525
		c1.443,0.351,2.727,0.919,3.848,1.704c1.121,0.785,2.011,1.787,2.671,3.007c0.658,1.218,0.988,2.697,0.988,4.434h-6.391
		c-0.057-0.895-0.247-1.638-0.568-2.227c-0.323-0.589-0.75-1.051-1.283-1.388c-0.532-0.336-1.142-0.573-1.829-0.714
		c-0.688-0.141-1.437-0.211-2.251-0.211c-0.532,0-1.063,0.056-1.597,0.168c-0.533,0.112-1.016,0.31-1.449,0.59
		c-0.437,0.28-0.793,0.63-1.073,1.05c-0.282,0.421-0.421,0.954-0.421,1.598c0,0.589,0.112,1.066,0.336,1.429
		c0.224,0.366,0.666,0.702,1.325,1.011c0.658,0.308,1.57,0.616,2.733,0.923c1.161,0.31,2.684,0.702,4.562,1.178
		c0.56,0.112,1.338,0.315,2.333,0.609c0.995,0.295,1.982,0.763,2.964,1.409c0.981,0.646,1.829,1.506,2.545,2.585
		c0.714,1.079,1.072,2.462,1.072,4.142c0,1.374-0.267,2.65-0.799,3.827c-0.533,1.177-1.325,2.193-2.376,3.048
		c-1.052,0.857-2.355,1.521-3.911,1.997c-1.555,0.478-3.357,0.717-5.402,0.717c-1.655,0-3.26-0.203-4.815-0.61
		c-1.557-0.405-2.931-1.044-4.121-1.914c-1.192-0.867-2.138-1.978-2.839-3.322c-0.7-1.345-1.037-2.94-1.008-4.791h6.391
		C93.662,69.076,93.843,69.931,94.208,70.633z"/>
	<linearGradient id="SVGID_4_" gradientUnits="userSpaceOnUse" x1="116.4512" y1="63.021" x2="137.5596" y2="63.021">
		<stop  offset="0" style="stop-color:#005F98"/>
		<stop  offset="1" style="stop-color:#1A2451"/>
	</linearGradient>
	<path fill="url(#SVGID_4_)" d="M137.56,48.01v5.55h-14.505v6.938h12.571v5.13h-12.571v12.404h-6.603V48.01H137.56z"/>
</g>
</svg>
