<?xml version="1.0" encoding="utf-8"?>
<!-- Generator: Adobe Illustrator 16.0.0, SVG Export Plug-In . SVG Version: 6.00 Build 0)  -->
<!DOCTYPE svg PUBLIC "-//W3C//DTD SVG 1.1//EN" "http://www.w3.org/Graphics/SVG/1.1/DTD/svg11.dtd">
<svg version="1.1" id="Layer_1" xmlns="http://www.w3.org/2000/svg" xmlns:xlink="http://www.w3.org/1999/xlink" x="0px" y="0px"
	 width="290px" height="126px" viewBox="0 0 290 126" enable-background="new 0 0 290 126" xml:space="preserve">
<linearGradient id="SVGID_1_" gradientUnits="userSpaceOnUse" x1="25.751" y1="110.6123" x2="25.751" y2="22.9348" gradientTransform="matrix(1 0 0 -1 8.499 129.5)">
	<stop  offset="0" style="stop-color:#005E98"/>
	<stop  offset="1" style="stop-color:#001F54"/>
</linearGradient>
<path fill="url(#SVGID_1_)" d="M53.269,84.75c1.506,0,2.73,1.241,2.73,2.768v14.965l-2.73,6.019c3.301,0,5.98-2.694,5.98-6.019
	V87.518c0-3.324-2.68-6.018-5.98-6.018l0,0H15.231c-3.303,0-5.981,2.693-5.981,6.018l5.981-2.768H53.269"/>
<linearGradient id="SVGID_2_" gradientUnits="userSpaceOnUse" x1="28.7417" y1="110.5234" x2="28.7417" y2="22.8475" gradientTransform="matrix(1 0 0 -1 8.499 129.5)">
	<stop  offset="0" style="stop-color:#005E98"/>
	<stop  offset="1" style="stop-color:#001F54"/>
</linearGradient>
<path fill="url(#SVGID_2_)" d="M53.269,52.837c1.506,0,2.73,1.241,2.73,2.767V70.57c0,1.525-1.227,2.767-2.73,2.767H15.231v3.25
	h38.037c3.301,0,5.98-2.694,5.98-6.017V55.604c0-3.323-2.68-6.017-5.98-6.017l0,0H15.231v3.25H53.269"/>
<linearGradient id="SVGID_3_" gradientUnits="userSpaceOnUse" x1="25.75" y1="110.1611" x2="25.75" y2="24.0231" gradientTransform="matrix(1 0 0 -1 8.499 129.5)">
	<stop  offset="0" style="stop-color:#005E98"/>
	<stop  offset="1" style="stop-color:#004D87"/>
</linearGradient>
<path fill="url(#SVGID_3_)" d="M9.249,38.482c0,3.323,2.68,6.017,5.98,6.017h38.037c3.303,0,5.981-2.694,5.981-6.017V23.517
	c0-2.492-1.507-4.63-3.653-5.544l-0.05,4.02c0.286,0.437,0.453,0.961,0.453,1.525v14.966c0,1.526-1.226,2.767-2.731,2.767H15.229"/>
<line opacity="0.8" fill="none" stroke="#F36B3E" stroke-width="3" stroke-linecap="round" stroke-linejoin="round" stroke-miterlimit="10" enable-background="new    " x1="66.25" y1="63.175" x2="101.768" y2="63.175"/>
<line opacity="0.8" fill="none" stroke="#F36B3E" stroke-width="3" stroke-linecap="round" stroke-linejoin="round" stroke-miterlimit="10" enable-background="new    " x1="187.25" y1="63.046" x2="213.25" y2="63.046"/>
<g opacity="0.9">
	
		<linearGradient id="SVGID_4_" gradientUnits="userSpaceOnUse" x1="-73.7515" y1="115.6104" x2="-73.7515" y2="20.5039" gradientTransform="matrix(-1 0 0 -1 71 129.5)">
		<stop  offset="0" style="stop-color:#005E98"/>
		<stop  offset="1" style="stop-color:#001F54"/>
	</linearGradient>
	<path fill="url(#SVGID_4_)" d="M107.76,52.383c0-3.658,2.965-6.623,6.622-6.623h60.737c3.658,0,6.623,2.965,6.623,6.623v21.234
		c0,3.658-2.967,6.623-6.623,6.623h-60.737c-3.657,0-6.622-2.965-6.622-6.623V52.383z"/>
</g>
<linearGradient id="SVGID_5_" gradientUnits="userSpaceOnUse" x1="24.751" y1="110.6104" x2="24.751" y2="22.9376" gradientTransform="matrix(1 0 0 -1 8.499 129.5)">
	<stop  offset="0" style="stop-color:#005E98"/>
	<stop  offset="1" style="stop-color:#004D87"/>
</linearGradient>
<path fill="url(#SVGID_5_)" d="M52.269,19.75c1.506,0,2.73,1.241,2.73,2.767v14.966c0,1.526-1.227,2.767-2.73,2.767H14.231
	c-1.506,0-2.731-1.241-2.731-2.767V22.517c0-1.526,1.226-2.767,2.731-2.767H52.269 M52.269,16.5H14.231
	c-3.303,0-5.981,2.694-5.981,6.017v14.966c0,3.323,2.681,6.017,5.981,6.017h38.037c3.301,0,5.98-2.694,5.98-6.017V22.517
	C58.249,19.194,55.569,16.5,52.269,16.5L52.269,16.5z"/>
<linearGradient id="SVGID_6_" gradientUnits="userSpaceOnUse" x1="24.751" y1="110.5234" x2="24.751" y2="22.8475" gradientTransform="matrix(1 0 0 -1 8.499 129.5)">
	<stop  offset="0" style="stop-color:#005E98"/>
	<stop  offset="1" style="stop-color:#001F54"/>
</linearGradient>
<path fill="url(#SVGID_6_)" d="M52.269,52.837c1.506,0,2.73,1.241,2.73,2.767V70.57c0,1.525-1.227,2.767-2.73,2.767H14.231
	c-1.506,0-2.731-1.241-2.731-2.767V55.604c0-1.526,1.226-2.767,2.731-2.767H52.269 M52.269,49.587H14.231
	c-3.303,0-5.981,2.694-5.981,6.017V70.57c0,3.322,2.681,6.017,5.981,6.017h38.037c3.301,0,5.98-2.694,5.98-6.017V55.604
	C58.249,52.282,55.569,49.587,52.269,49.587L52.269,49.587z"/>
<linearGradient id="SVGID_7_" gradientUnits="userSpaceOnUse" x1="24.751" y1="110.6123" x2="24.751" y2="22.9348" gradientTransform="matrix(1 0 0 -1 8.499 129.5)">
	<stop  offset="0" style="stop-color:#005E98"/>
	<stop  offset="1" style="stop-color:#001F54"/>
</linearGradient>
<path fill="url(#SVGID_7_)" d="M52.269,85.75c1.506,0,2.73,1.242,2.73,2.768v14.967c0,1.524-1.227,2.767-2.73,2.767H14.231
	c-1.506,0-2.731-1.241-2.731-2.767V88.518c0-1.526,1.226-2.769,2.731-2.769L52.269,85.75 M52.269,82.5H14.231
	c-3.303,0-5.981,2.693-5.981,6.018v14.967c0,3.322,2.681,6.017,5.981,6.017h38.037c3.301,0,5.98-2.694,5.98-6.017V88.518
	C58.249,85.193,55.569,82.5,52.269,82.5L52.269,82.5z"/>
<path opacity="0.8" fill="none" stroke="#F36B3E" stroke-width="3" stroke-linecap="round" stroke-linejoin="round" stroke-miterlimit="10" enable-background="new    " d="
	M65,32c0,0,10,0,14.583-0.001c5.5,0,7.667,3.225,7.667,8.225c0,2.364,0-1.091,0,5.5c0,6.333,2.666,9.416,8.333,9.416
	c1.917,0,6.185,0,6.185,0"/>
<path opacity="0.8" fill="none" stroke="#F36B3E" stroke-width="3" stroke-linecap="round" stroke-linejoin="round" stroke-miterlimit="10" enable-background="new    " d="
	M65,94c0,0,10,0,14.583,0c5.5,0,7.667-3.225,7.667-8.225c0-2.365,0,1.09,0-5.5c0-6.334,2.666-9.416,8.333-9.416
	c1.917,0,6.185,0,6.185,0"/>
<linearGradient id="SVGID_8_" gradientUnits="userSpaceOnUse" x1="-184.9995" y1="496.5566" x2="-184.9995" y2="768.3556" gradientTransform="matrix(1 0 0 1 438 -468)">
	<stop  offset="0" style="stop-color:#005E98"/>
	<stop  offset="1" style="stop-color:#004D87"/>
</linearGradient>
<path fill="url(#SVGID_8_)" d="M280.02,24.398c1.506,0,2.73,1.241,2.73,2.767v71.668c0,1.526-1.227,2.769-2.73,2.769h-54.037
	c-1.506,0-2.73-1.242-2.73-2.769V27.166c0-1.526,1.227-2.767,2.73-2.767L280.02,24.398 M280.02,21.148h-54.037
	c-3.303,0-5.98,2.694-5.98,6.017v71.668c0,3.324,2.682,6.019,5.98,6.019h54.037c3.301,0,5.98-2.693,5.98-6.019V27.166
	C286,23.842,283.32,21.148,280.02,21.148L280.02,21.148z"/>
<path opacity="0.15" fill="#001F54" enable-background="new    " d="M277.75,33.208c0,0.553-0.445,1-1,1h-47.333
	c-0.552,0-1-0.447-1-1v-3c0-0.553,0.448-1,1-1h47.333c0.555,0,1,0.447,1,1V33.208L277.75,33.208z"/>
<path opacity="0.15" fill="#001F54" enable-background="new    " d="M243.417,95.667c0,0.554-0.448,1-1,1h-13c-0.552,0-1-0.446-1-1
	V40.208c0-0.553,0.448-1,1-1h13c0.552,0,1,0.447,1,1V95.667z"/>
<path opacity="0.08" fill="#001F54" enable-background="new    " d="M248.417,40.085c0-0.553,0.446-1,1-1h27.333
	c0.555,0,1,0.447,1,1v55.582c0,0.554-0.445,1-1,1h-27.333c-0.554,0-1-0.446-1-1V40.085z"/>
<g>
	<path fill="#FFFFFF" d="M128.948,69.521l-2.178-8.748h-0.036l-2.142,8.748h-2.862l-3.402-12.852h2.826l2.034,8.748h0.036
		l2.232-8.748h2.646l2.196,8.855h0.036l2.106-8.855h2.772l-3.456,12.852H128.948z"/>
	<path fill="#FFFFFF" d="M138.667,66.354c0.156,0.3,0.363,0.543,0.621,0.729c0.258,0.187,0.561,0.324,0.909,0.414
		c0.348,0.091,0.709,0.136,1.08,0.136c0.252,0,0.522-0.021,0.811-0.063c0.287-0.042,0.558-0.123,0.81-0.243
		c0.252-0.119,0.462-0.284,0.63-0.495c0.168-0.209,0.252-0.477,0.252-0.801c0-0.348-0.111-0.63-0.332-0.846
		c-0.223-0.216-0.514-0.396-0.873-0.54c-0.36-0.145-0.769-0.271-1.225-0.378c-0.456-0.108-0.918-0.228-1.386-0.36
		c-0.48-0.119-0.948-0.267-1.404-0.44s-0.864-0.399-1.224-0.676c-0.36-0.275-0.651-0.62-0.873-1.034s-0.333-0.915-0.333-1.503
		c0-0.66,0.141-1.233,0.423-1.72c0.282-0.485,0.651-0.891,1.107-1.215s0.972-0.563,1.548-0.72s1.152-0.234,1.728-0.234
		c0.672,0,1.316,0.075,1.936,0.226c0.617,0.149,1.167,0.393,1.646,0.729s0.861,0.765,1.143,1.287
		c0.282,0.522,0.424,1.155,0.424,1.899h-2.736c-0.024-0.385-0.105-0.702-0.243-0.954s-0.321-0.45-0.549-0.595
		c-0.228-0.144-0.489-0.245-0.783-0.306c-0.294-0.06-0.614-0.09-0.963-0.09c-0.228,0-0.456,0.024-0.685,0.072
		c-0.228,0.048-0.435,0.132-0.621,0.252c-0.186,0.12-0.338,0.27-0.458,0.449c-0.12,0.181-0.18,0.408-0.18,0.685
		c0,0.252,0.048,0.456,0.144,0.612c0.096,0.155,0.285,0.3,0.566,0.432c0.282,0.132,0.672,0.264,1.17,0.396
		c0.498,0.133,1.149,0.301,1.953,0.505c0.24,0.048,0.573,0.135,1,0.261c0.425,0.126,0.849,0.327,1.269,0.603
		c0.42,0.276,0.783,0.646,1.089,1.107s0.459,1.053,0.459,1.772c0,0.589-0.114,1.135-0.342,1.639
		c-0.229,0.504-0.567,0.938-1.018,1.305c-0.449,0.366-1.008,0.651-1.674,0.855c-0.666,0.203-1.438,0.306-2.312,0.306
		c-0.709,0-1.396-0.087-2.062-0.261s-1.254-0.447-1.764-0.819c-0.51-0.372-0.916-0.846-1.215-1.422s-0.444-1.26-0.432-2.052h2.736
		C138.434,65.688,138.512,66.054,138.667,66.354z"/>
	<path fill="#FFFFFF" d="M155.119,56.67c0.576,0,1.095,0.093,1.557,0.278c0.462,0.187,0.858,0.441,1.188,0.766
		c0.33,0.323,0.582,0.699,0.756,1.125s0.261,0.885,0.261,1.377c0,0.756-0.159,1.41-0.477,1.962c-0.318,0.552-0.837,0.972-1.557,1.26
		v0.036c0.348,0.096,0.636,0.243,0.863,0.44c0.229,0.198,0.414,0.433,0.559,0.702c0.144,0.271,0.249,0.567,0.314,0.892
		c0.066,0.323,0.111,0.647,0.136,0.972c0.012,0.204,0.023,0.444,0.035,0.72c0.012,0.276,0.033,0.559,0.063,0.847
		c0.029,0.287,0.078,0.561,0.144,0.818c0.066,0.259,0.165,0.478,0.297,0.657h-2.825c-0.156-0.408-0.252-0.894-0.288-1.458
		c-0.036-0.563-0.09-1.104-0.162-1.62c-0.097-0.672-0.3-1.164-0.612-1.476c-0.312-0.312-0.822-0.469-1.53-0.469h-2.825v5.022h-2.826
		V56.67H155.119z M154.111,62.483c0.647,0,1.134-0.144,1.458-0.432s0.486-0.756,0.486-1.404c0-0.624-0.162-1.077-0.486-1.359
		c-0.324-0.281-0.811-0.423-1.458-0.423h-3.096v3.618H154.111z"/>
	<path fill="#FFFFFF" d="M166.981,56.67c0.804,0,1.487,0.116,2.052,0.351s1.023,0.543,1.377,0.927
		c0.354,0.385,0.612,0.822,0.774,1.314s0.243,1.002,0.243,1.529c0,0.517-0.081,1.023-0.243,1.521s-0.42,0.939-0.774,1.323
		c-0.354,0.384-0.812,0.692-1.377,0.927s-1.248,0.351-2.052,0.351h-2.97v4.608h-2.826V56.67H166.981z M166.207,62.718
		c0.324,0,0.637-0.024,0.937-0.072s0.563-0.141,0.792-0.279c0.228-0.138,0.411-0.333,0.549-0.585s0.207-0.582,0.207-0.99
		c0-0.407-0.069-0.737-0.207-0.989s-0.321-0.447-0.549-0.585c-0.229-0.138-0.492-0.231-0.792-0.279s-0.612-0.072-0.937-0.072h-2.195
		v3.853H166.207z"/>
</g>
</svg>
