<?xml version="1.0" encoding="UTF-8"?>
<!-- Generator: Adobe Illustrator 16.0.0, SVG Export Plug-In . SVG Version: 6.00 Build 0)  -->
<!DOCTYPE svg PUBLIC "-//W3C//DTD SVG 1.1//EN" "http://www.w3.org/Graphics/SVG/1.1/DTD/svg11.dtd">
<svg version="1.1" id="Layer_1" xmlns="http://www.w3.org/2000/svg" xmlns:xlink="http://www.w3.org/1999/xlink" x="0px" y="0px" width="290px" height="126px" viewBox="-33.65 0 290 126" enable-background="new -33.65 0 290 126" xml:space="preserve">
<g opacity="0">
	<g>
		
			<linearGradient id="SVGID_1_" gradientUnits="userSpaceOnUse" x1="214.5493" y1="-169.0776" x2="214.5493" y2="-170.478" gradientTransform="matrix(1 0 0 -1 -137.5 -54)">
			<stop offset="0" style="stop-color:#F89B3A"/>
			<stop offset="1" style="stop-color:#E31F28"/>
		</linearGradient>
		
			<line fill="none" stroke="url(#SVGID_1_)" stroke-width="1.4" stroke-miterlimit="10" x1="90.5" y1="115.777" x2="63.6" y2="115.777"/>
		<g>
			
				<linearGradient id="SVGID_2_" gradientUnits="userSpaceOnUse" x1="201.6938" y1="-169.0791" x2="201.6938" y2="-170.4792" gradientTransform="matrix(1 0 0 -1 -137.5 -54)">
				<stop offset="0" style="stop-color:#F89B3A"/>
				<stop offset="1" style="stop-color:#E31F28"/>
			</linearGradient>
			<polygon fill="url(#SVGID_2_)" points="66.389,113.405 64.014,115.777 66.389,118.15 64.374,118.15 62,115.777 64.374,113.405         "/>
		</g>
	</g>
</g>
<g opacity="0">
	<g>
		
			<linearGradient id="SVGID_3_" gradientUnits="userSpaceOnUse" x1="295.4478" y1="-169.0776" x2="295.4478" y2="-170.478" gradientTransform="matrix(1 0 0 -1 -137.5 -54)">
			<stop offset="0" style="stop-color:#F89B3A"/>
			<stop offset="1" style="stop-color:#E31F28"/>
		</linearGradient>
		
			<line fill="none" stroke="url(#SVGID_3_)" stroke-width="1.4" stroke-miterlimit="10" x1="174.399" y1="115.777" x2="141.499" y2="115.777"/>
		<g>
			
				<linearGradient id="SVGID_4_" gradientUnits="userSpaceOnUse" x1="311.3052" y1="-169.0791" x2="311.3052" y2="-170.4792" gradientTransform="matrix(1 0 0 -1 -137.5 -54)">
				<stop offset="0" style="stop-color:#F89B3A"/>
				<stop offset="1" style="stop-color:#E31F28"/>
			</linearGradient>
			<polygon fill="url(#SVGID_4_)" points="171.611,113.405 173.986,115.777 171.611,118.15 173.627,118.15 176,115.777      173.627,113.405    "/>
		</g>
	</g>
</g>
<g opacity="0">
	<g>
		
			<linearGradient id="SVGID_5_" gradientUnits="userSpaceOnUse" x1="159.1011" y1="-83.5249" x2="159.1011" y2="-99.7783" gradientTransform="matrix(1 0 0 -1 -137.5 -54)">
			<stop offset="0" style="stop-color:#F89B3A"/>
			<stop offset="1" style="stop-color:#E31F28"/>
		</linearGradient>
		<path fill="none" stroke="url(#SVGID_5_)" stroke-width="1.4" stroke-miterlimit="10" d="M17.503,44.178V33.225    c0-1.657,1.343-3,3-3H26.4"/>
		<g>
			
				<linearGradient id="SVGID_6_" gradientUnits="userSpaceOnUse" x1="155.0024" y1="-83.5249" x2="155.0024" y2="-99.7788" gradientTransform="matrix(1 0 0 -1 -137.5 -54)">
				<stop offset="0" style="stop-color:#F89B3A"/>
				<stop offset="1" style="stop-color:#E31F28"/>
			</linearGradient>
			<polygon fill="url(#SVGID_6_)" points="19.876,41.39 17.503,43.765 15.129,41.39 15.129,43.405 17.503,45.778 19.876,43.405         "/>
		</g>
		<g>
			
				<linearGradient id="SVGID_7_" gradientUnits="userSpaceOnUse" x1="163.3052" y1="-83.5249" x2="163.3052" y2="-99.7788" gradientTransform="matrix(1 0 0 -1 -137.5 -54)">
				<stop offset="0" style="stop-color:#F89B3A"/>
				<stop offset="1" style="stop-color:#E31F28"/>
			</linearGradient>
			<polygon fill="url(#SVGID_7_)" points="23.611,32.598 25.986,30.225 23.611,27.852 25.626,27.852 28,30.225 25.626,32.598    "/>
		</g>
	</g>
</g>
<g opacity="0">
	<g>
		
			<linearGradient id="SVGID_8_" gradientUnits="userSpaceOnUse" x1="351.1499" y1="-102.022" x2="351.1499" y2="-159.478" gradientTransform="matrix(1 0 0 -1 -137.5 -54)">
			<stop offset="0" style="stop-color:#F89B3A"/>
			<stop offset="1" style="stop-color:#E31F28"/>
		</linearGradient>
		<path fill="none" stroke="url(#SVGID_8_)" stroke-width="1.4" stroke-miterlimit="10" d="M214.601,104.777H219    c1.656,0,3-1.342,3-3V51.722c0-1.657-1.344-3-3-3h-14.399"/>
		<g>
			
				<linearGradient id="SVGID_9_" gradientUnits="userSpaceOnUse" x1="352.6938" y1="-102.0342" x2="352.6938" y2="-159.4795" gradientTransform="matrix(1 0 0 -1 -137.5 -54)">
				<stop offset="0" style="stop-color:#F89B3A"/>
				<stop offset="1" style="stop-color:#E31F28"/>
			</linearGradient>
			<polygon fill="url(#SVGID_9_)" points="217.389,107.15 215.014,104.777 217.389,102.405 215.374,102.405 213,104.777      215.374,107.15    "/>
		</g>
		<g>
			
				<linearGradient id="SVGID_10_" gradientUnits="userSpaceOnUse" x1="342.6938" y1="-102.022" x2="342.6938" y2="-159.485" gradientTransform="matrix(1 0 0 -1 -137.5 -54)">
				<stop offset="0" style="stop-color:#F89B3A"/>
				<stop offset="1" style="stop-color:#E31F28"/>
			</linearGradient>
			<polygon fill="url(#SVGID_10_)" points="207.389,46.349 205.014,48.722 207.389,51.095 205.374,51.095 203,48.722      205.374,46.349    "/>
		</g>
	</g>
</g>
<linearGradient id="SVGID_11_" gradientUnits="userSpaceOnUse" x1="252.9995" y1="-38.3911" x2="252.9995" y2="-172.0502" gradientTransform="matrix(1 0 0 -1 -137.5 -54)">
	<stop offset="0" style="stop-color:#005E98"/>
	<stop offset="1" style="stop-color:#001854"/>
</linearGradient>
<path fill="url(#SVGID_11_)" d="M197,97.208c0,2.771-2.238,5.015-5,5.015H39c-2.762,0-5-2.244-5-5.015V5.235  c0-2.77,2.238-5.014,5-5.014h153c2.762,0,5,2.244,5,5.014V97.208z"/>
<rect x="42" y="8.222" fill="#FFFFFF" width="147" height="81"/>
<path fill="none" stroke="#FFFFFF" stroke-width="0.2666" stroke-linecap="round" stroke-linejoin="round" stroke-miterlimit="10" d="  M188.68,98.002c0.373,0.373,0.373,0.979,0,1.352s-0.979,0.373-1.352,0s-0.373-0.979,0-1.352"/>
<line fill="none" stroke="#FFFFFF" stroke-width="0.2493" stroke-linecap="round" stroke-miterlimit="10" x1="188.004" y1="97.668" x2="188.004" y2="98.545"/>
<linearGradient id="SVGID_12_" gradientUnits="userSpaceOnUse" x1="253.4985" y1="-38.3931" x2="253.4985" y2="-172.0493" gradientTransform="matrix(1 0 0 -1 -137.5 -54)">
	<stop offset="0" style="stop-color:#005E98"/>
	<stop offset="1" style="stop-color:#001854"/>
</linearGradient>
<path fill="url(#SVGID_12_)" d="M129.413,96.877c0-10.432-13.412,0-13.412,0s-13.415-10.432-13.415,0s-8.746,24.734-13.414,28.9H116  h26.826C138.161,121.611,129.413,107.309,129.413,96.877z"/>
<linearGradient id="SVGID_13_" gradientUnits="userSpaceOnUse" x1="165.4995" y1="-38.3911" x2="165.4995" y2="-172.0492" gradientTransform="matrix(1 0 0 -1 -137.5 -54)">
	<stop offset="0" style="stop-color:#005E98"/>
	<stop offset="1" style="stop-color:#001854"/>
</linearGradient>
<path fill="url(#SVGID_13_)" d="M56,122.771c0,1.66-1.342,3.006-2.998,3.006H2.998c-1.656,0-2.998-1.346-2.998-3.006V54.785  c0-1.661,1.342-3.007,2.998-3.007h50.004c1.656,0,2.998,1.346,2.998,3.007V122.771z"/>
<g>
	<path fill="#FFFFFF" d="M39.434,120.975c0,0.268-0.215,0.482-0.482,0.482h-2.086c-0.268,0-0.482-0.216-0.482-0.482v-0.735   c0-0.267,0.215-0.482,0.482-0.482h2.086c0.268,0,0.482,0.216,0.482,0.482V120.975z"/>
	<path fill="#FFFFFF" d="M29.525,120.975c0,0.268-0.215,0.482-0.482,0.482h-2.086c-0.268,0-0.482-0.216-0.482-0.482v-0.735   c0-0.267,0.215-0.482,0.482-0.482h2.086c0.268,0,0.482,0.216,0.482,0.482V120.975z"/>
	<path fill="#FFFFFF" d="M19.617,120.975c0,0.268-0.215,0.482-0.482,0.482h-2.086c-0.268,0-0.482-0.216-0.482-0.482v-0.735   c0-0.267,0.215-0.482,0.482-0.482h2.086c0.268,0,0.482,0.216,0.482,0.482V120.975z"/>
</g>
<rect x="6" y="57.778" fill="#FFFFFF" width="44" height="58"/>
<linearGradient id="SVGID_14_" gradientUnits="userSpaceOnUse" x1="331.4985" y1="-38.3887" x2="331.4985" y2="-172.0501" gradientTransform="matrix(1 0 0 -1 -137.5 -54)">
	<stop offset="0" style="stop-color:#005E98"/>
	<stop offset="1" style="stop-color:#001854"/>
</linearGradient>
<path fill="url(#SVGID_14_)" d="M183.983,125.777c-1.095,0-1.982-0.959-1.982-2.141V85.919c0-1.183,0.889-2.142,1.982-2.142h20.033  c1.095,0,1.982,0.959,1.982,2.142v37.72c0,1.182-0.889,2.141-1.982,2.141h-20.033V125.777z"/>
<g>
	<path fill="#FFFFFF" d="M200.684,122.531c0,0.244-0.198,0.441-0.441,0.441h-1.914c-0.244,0-0.442-0.197-0.442-0.441v-0.674   c0-0.246,0.198-0.442,0.442-0.442h1.914c0.243,0,0.441,0.196,0.441,0.442V122.531z"/>
	<path fill="#FFFFFF" d="M195.399,122.531c0,0.244-0.197,0.441-0.441,0.441h-1.914c-0.244,0-0.442-0.197-0.442-0.441v-0.674   c0-0.246,0.198-0.442,0.442-0.442h1.914c0.244,0,0.441,0.196,0.441,0.442V122.531z"/>
	<path fill="#FFFFFF" d="M190.116,122.531c0,0.244-0.199,0.441-0.443,0.441h-1.914c-0.243,0-0.441-0.197-0.441-0.441v-0.674   c0-0.246,0.198-0.442,0.441-0.442h1.914c0.244,0,0.443,0.196,0.443,0.442V122.531z"/>
</g>
<rect x="185" y="86.777" fill="#FFFFFF" width="18" height="32"/>
<g opacity="0">
	<g>
		<line fill="none" stroke="#001E5E" stroke-miterlimit="10" x1="222" y1="86.777" x2="225" y2="118.777"/>
		<g>
			
				<rect x="221.508" y="83.527" transform="matrix(0.0919 0.9958 -0.9958 0.0919 288.0038 -142.268)" fill="#001E5E" width="0.998" height="6.5"/>
		</g>
		<g>
			
				<rect x="224.493" y="115.529" transform="matrix(-0.0928 -0.9957 0.9957 -0.0928 127.6119 353.8258)" fill="#001E5E" width="0.999" height="6.5"/>
		</g>
	</g>
</g>
<g>
	
		<linearGradient id="SVGID_15_" gradientUnits="userSpaceOnUse" x1="214.5493" y1="-66.8198" x2="214.5493" y2="-179.3372" gradientTransform="matrix(1 0 0 -1 -137.5 -54)">
		<stop offset="0" style="stop-color:#F89B3A"/>
		<stop offset="1" style="stop-color:#E31F28"/>
	</linearGradient>
	<rect x="63.6" y="115.078" fill="url(#SVGID_15_)" width="26.9" height="1.4"/>
	<g>
		
			<linearGradient id="SVGID_16_" gradientUnits="userSpaceOnUse" x1="201.6938" y1="-66.9126" x2="201.6938" y2="-179.3282" gradientTransform="matrix(1 0 0 -1 -137.5 -54)">
			<stop offset="0" style="stop-color:#F89B3A"/>
			<stop offset="1" style="stop-color:#E31F28"/>
		</linearGradient>
		<polygon fill="url(#SVGID_16_)" points="66.389,113.405 64.014,115.777 66.389,118.15 64.374,118.15 62,115.777 64.374,113.405       "/>
	</g>
</g>
<g>
	
		<linearGradient id="SVGID_17_" gradientUnits="userSpaceOnUse" x1="295.4478" y1="-66.8198" x2="295.4478" y2="-179.3372" gradientTransform="matrix(1 0 0 -1 -137.5 -54)">
		<stop offset="0" style="stop-color:#F89B3A"/>
		<stop offset="1" style="stop-color:#E31F28"/>
	</linearGradient>
	<rect x="141.499" y="115.078" fill="url(#SVGID_17_)" width="32.9" height="1.4"/>
	<g>
		
			<linearGradient id="SVGID_18_" gradientUnits="userSpaceOnUse" x1="311.3052" y1="-66.9126" x2="311.3052" y2="-179.3282" gradientTransform="matrix(1 0 0 -1 -137.5 -54)">
			<stop offset="0" style="stop-color:#F89B3A"/>
			<stop offset="1" style="stop-color:#E31F28"/>
		</linearGradient>
		<polygon fill="url(#SVGID_18_)" points="171.611,113.405 173.986,115.777 171.611,118.15 173.627,118.15 176,115.777     173.627,113.405   "/>
	</g>
</g>
<g>
	
		<linearGradient id="SVGID_19_" gradientUnits="userSpaceOnUse" x1="159.1021" y1="-66.8916" x2="159.1021" y2="-179.3268" gradientTransform="matrix(1 0 0 -1 -137.5 -54)">
		<stop offset="0" style="stop-color:#F89B3A"/>
		<stop offset="1" style="stop-color:#E31F28"/>
	</linearGradient>
	<path fill="url(#SVGID_19_)" d="M18.203,44.178h-1.4V33.225c0-2.04,1.66-3.7,3.7-3.7H26.4v1.4h-5.897c-1.268,0-2.3,1.031-2.3,2.3   V44.178z"/>
	<g>
		
			<linearGradient id="SVGID_20_" gradientUnits="userSpaceOnUse" x1="155.0024" y1="-66.8911" x2="155.0024" y2="-179.3302" gradientTransform="matrix(1 0 0 -1 -137.5 -54)">
			<stop offset="0" style="stop-color:#F89B3A"/>
			<stop offset="1" style="stop-color:#E31F28"/>
		</linearGradient>
		<polygon fill="url(#SVGID_20_)" points="19.876,41.39 17.503,43.765 15.129,41.39 15.129,43.405 17.503,45.778 19.876,43.405       "/>
	</g>
	<g>
		
			<linearGradient id="SVGID_21_" gradientUnits="userSpaceOnUse" x1="163.3052" y1="-66.8911" x2="163.3052" y2="-179.3299" gradientTransform="matrix(1 0 0 -1 -137.5 -54)">
			<stop offset="0" style="stop-color:#F89B3A"/>
			<stop offset="1" style="stop-color:#E31F28"/>
		</linearGradient>
		<polygon fill="url(#SVGID_21_)" points="23.611,32.598 25.986,30.225 23.611,27.852 25.626,27.852 28,30.225 25.626,32.598   "/>
	</g>
</g>
<g>
	
		<linearGradient id="SVGID_22_" gradientUnits="userSpaceOnUse" x1="351.1489" y1="-66.8911" x2="351.1489" y2="-179.3299" gradientTransform="matrix(1 0 0 -1 -137.5 -54)">
		<stop offset="0" style="stop-color:#F89B3A"/>
		<stop offset="1" style="stop-color:#E31F28"/>
	</linearGradient>
	<path fill="url(#SVGID_22_)" d="M219,105.479h-4.399v-1.399H219c1.269,0,2.299-1.031,2.299-2.3V51.722c0-1.269-1.03-2.3-2.299-2.3   h-14.399v-1.4H219c2.039,0,3.699,1.66,3.699,3.7v50.057C222.7,103.818,221.04,105.479,219,105.479z"/>
	<g>
		
			<linearGradient id="SVGID_23_" gradientUnits="userSpaceOnUse" x1="352.6938" y1="-66.9106" x2="352.6938" y2="-179.3263" gradientTransform="matrix(1 0 0 -1 -137.5 -54)">
			<stop offset="0" style="stop-color:#F89B3A"/>
			<stop offset="1" style="stop-color:#E31F28"/>
		</linearGradient>
		<polygon fill="url(#SVGID_23_)" points="217.389,107.15 215.014,104.777 217.389,102.405 215.374,102.405 213,104.777     215.374,107.15   "/>
	</g>
	<g>
		
			<linearGradient id="SVGID_24_" gradientUnits="userSpaceOnUse" x1="342.6938" y1="-66.8877" x2="342.6938" y2="-179.3381" gradientTransform="matrix(1 0 0 -1 -137.5 -54)">
			<stop offset="0" style="stop-color:#F89B3A"/>
			<stop offset="1" style="stop-color:#E31F28"/>
		</linearGradient>
		<polygon fill="url(#SVGID_24_)" points="207.389,46.349 205.014,48.722 207.389,51.095 205.374,51.095 203,48.722 205.374,46.349       "/>
	</g>
</g>
<path opacity="0.15" fill="#001F54" enable-background="new    " d="M177.917,20.725c0,0.553-0.446,1-1,1H53.75  c-0.552,0-1-0.447-1-1v-3c0-0.553,0.448-1,1-1h123.167c0.554,0,1,0.447,1,1V20.725L177.917,20.725z"/>
<path opacity="0.15" fill="#001F54" enable-background="new    " d="M77.26,78.975c0,0.553-0.448,1-1,1H53.75c-0.552,0-1-0.447-1-1  V29.641c0-0.553,0.448-1,1-1h22.51c0.552,0,1,0.447,1,1V78.975z"/>
<path opacity="0.08" fill="#001F54" enable-background="new    " d="M87.25,29.641c0-0.553,0.447-1,1-1h88.667c0.554,0,1,0.447,1,1  v49.333c0,0.553-0.446,1-1,1H88.25c-0.553,0-1-0.447-1-1V29.641z"/>
<path opacity="0.15" fill="#001F54" enable-background="new    " d="M45.875,64.016c0,0.553-0.448,1-1,1h-34.75  c-0.552,0-1-0.447-1-1v-1.75c0-0.553,0.448-1,1-1h34.75c0.552,0,1,0.447,1,1V64.016z"/>
<path opacity="0.08" fill="#001F54" enable-background="new    " d="M45.875,110.891c0,0.553-0.448,1-1,1h-34.75  c-0.552,0-1-0.447-1-1v-41c0-0.553,0.448-1,1-1h34.75c0.552,0,1,0.447,1,1V110.891z"/>
<path opacity="0.15" fill="#001F54" enable-background="new    " d="M200.684,90.643c0,0.553-0.447,1-1,1h-11.635  c-0.553,0-1-0.447-1-1v-0.42c0-0.554,0.447-1,1-1h11.635c0.553,0,1,0.446,1,1V90.643z"/>
<path opacity="0.08" fill="#001F54" enable-background="new    " d="M200.684,115.479c0,0.554-0.447,1-1,1h-11.635  c-0.553,0-1-0.446-1-1V94.893c0-0.554,0.447-1,1-1h11.635c0.553,0,1,0.446,1,1V115.479z"/>
</svg>