<?xml version="1.0" encoding="utf-8"?>
<!-- Generator: Adobe Illustrator 16.0.0, SVG Export Plug-In . SVG Version: 6.00 Build 0)  -->
<!DOCTYPE svg PUBLIC "-//W3C//DTD SVG 1.1//EN" "http://www.w3.org/Graphics/SVG/1.1/DTD/svg11.dtd">
<svg version="1.1"
	 id="Layer_1" xmlns:dc="http://purl.org/dc/elements/1.1/" xmlns:cc="http://creativecommons.org/ns#" xmlns:rdf="http://www.w3.org/1999/02/22-rdf-syntax-ns#" xmlns:svg="http://www.w3.org/2000/svg" xmlns:sodipodi="http://sodipodi.sourceforge.net/DTD/sodipodi-0.dtd" xmlns:inkscape="http://www.inkscape.org/namespaces/inkscape" sodipodi:docname="gatein_logo2.svg" inkscape:version="0.48.3.1 r9886"
	 xmlns="http://www.w3.org/2000/svg" xmlns:xlink="http://www.w3.org/1999/xlink" x="0px" y="0px" width="392px" height="106px"
	 viewBox="0 0 392 106" enable-background="new 0 0 392 106" xml:space="preserve">
<g>
	<path id="path3523_1_" fill="#FFFFFF" d="M175.296,37.676l-8.455,8.363c-5.352-5.662-11.588-8.492-18.713-8.492
		c-6.209,0-11.409,2.059-15.602,6.176c-4.191,4.115-6.287,9.119-6.287,15.007c0,6.09,2.174,11.25,6.524,15.48
		c4.351,4.232,9.716,6.346,16.099,6.346c4.148,0,7.648-0.871,10.496-2.615c2.847-1.743,5.144-4.473,6.889-8.188H147.98V58.475
		h31.732l0.086,2.658c0,5.518-1.429,10.749-4.287,15.693c-2.859,4.947-6.562,8.721-11.107,11.322
		c-4.545,2.601-9.877,3.901-15.994,3.901c-6.547,0-12.387-1.424-17.518-4.267c-5.132-2.846-9.191-6.897-12.178-12.156
		c-2.988-5.262-4.48-10.938-4.48-17.023c0-8.35,2.757-15.611,8.275-21.786c6.547-7.346,15.064-11.02,25.557-11.02
		c5.489,0,10.621,1.014,15.395,3.043C167.492,30.557,171.437,33.502,175.296,37.676z"/>
	<path id="path3525_1_" fill="#FFFFFF" d="M220.998,43.809h11.705v46.656h-11.705v-4.934c-2.285,2.174-4.576,3.74-6.875,4.697
		s-4.791,1.436-7.477,1.436c-6.023,0-11.234-2.336-15.632-7.012c-4.397-4.674-6.595-10.483-6.595-17.433
		c0-7.202,2.127-13.104,6.381-17.708c4.256-4.604,9.425-6.904,15.507-6.904c2.795,0,5.424,0.529,7.879,1.586
		c2.455,1.059,4.727,2.645,6.812,4.762L220.998,43.809L220.998,43.809z M208.689,53.415c-3.617,0-6.623,1.278-9.017,3.838
		c-2.396,2.56-3.59,5.838-3.59,9.839c0,4.032,1.217,7.35,3.653,9.949c2.438,2.604,5.436,3.902,8.996,3.902
		c3.676,0,6.725-1.278,9.146-3.838c2.421-2.559,3.633-5.91,3.633-10.058c0-4.058-1.211-7.346-3.633-9.86
		C215.457,54.672,212.395,53.415,208.689,53.415z"/>
	<path id="path3527_1_" fill="#FFFFFF" d="M244.969,26.612h11.707v17.197h6.947v10.076h-6.947v36.58h-11.707v-36.58h-6.004V43.809
		h6.004V26.612z"/>
	<path id="path3529_1_" fill="#FFFFFF" d="M315.625,70.523h-37.607c0.543,3.316,1.994,5.953,4.353,7.912
		c2.358,1.957,5.366,2.938,9.026,2.938c4.373,0,8.134-1.528,11.277-4.591l9.863,4.632c-2.459,3.487-5.402,6.069-8.834,7.741
		c-3.431,1.672-7.504,2.508-12.221,2.508c-7.318,0-13.279-2.309-17.881-6.924c-4.604-4.616-6.904-10.399-6.904-17.348
		c0-7.117,2.295-13.029,6.881-17.73c4.59-4.703,10.342-7.055,17.262-7.055c7.346,0,13.32,2.352,17.925,7.055
		c4.604,4.701,6.903,10.912,6.903,18.632L315.625,70.523z M303.918,61.305c-0.774-2.602-2.299-4.717-4.574-6.347
		c-2.277-1.629-4.918-2.443-7.926-2.443c-3.266,0-6.128,0.914-8.59,2.744c-1.547,1.142-2.979,3.158-4.297,6.046H303.918z"/>
	<path id="path3531_1_" fill="#FFFFFF" d="M326.83,27.168h11.707v63.296H326.83V27.168z"/>
	<path id="path3533_1_" fill="#FFFFFF" d="M344.217,43.809h11.707v4.779c2.654-2.236,5.06-3.793,7.213-4.668
		c2.156-0.875,4.361-1.312,6.617-1.312c4.625,0,8.548,1.615,11.775,4.846c2.713,2.744,4.067,6.805,4.067,12.178v30.833h-11.579
		V70.032c0-5.566-0.25-9.265-0.749-11.093c-0.497-1.828-1.367-3.221-2.608-4.176c-1.24-0.959-2.773-1.436-4.6-1.436
		c-2.365,0-4.396,0.793-6.095,2.377c-1.698,1.585-2.875,3.777-3.53,6.574c-0.343,1.457-0.513,4.613-0.513,9.466v18.72h-11.707
		L344.217,43.809L344.217,43.809z"/>
	<path id="path3540_1_" fill="#FFFFFF" d="M56.87,7.944c-12.676,0-24.174,5.015-32.644,13.156l9.969,10.404
		c5.88-5.66,13.868-9.146,22.675-9.146c18.065,0,32.71,14.645,32.71,32.71c0,18.063-14.645,32.709-32.71,32.709
		c-8.71,0-16.619-3.41-22.481-8.961l-10.416,9.979c8.493,8.285,20.095,13.398,32.897,13.398c26.026,0,47.124-21.1,47.124-47.125
		C103.994,29.042,82.896,7.944,56.87,7.944z"/>
	<polygon id="polygon3547_1_" fill="#FFFFFF" points="4.71,79.182 4.71,99.219 48.797,55.305 4.76,11.095 4.719,31.723 
		28.445,55.305 	"/>
</g>
<sodipodi:namedview  inkscape:cy="53" inkscape:cx="157.61164" inkscape:zoom="4.5586735" showgrid="false" guidetolerance="10" gridtolerance="10" objecttolerance="10" borderopacity="1" pagecolor="#ffffff" bordercolor="#666666" id="namedview3549" inkscape:current-layer="Layer_1" inkscape:window-maximized="1" inkscape:window-y="0" inkscape:window-x="0" inkscape:window-height="1043" inkscape:window-width="1920" inkscape:pageshadow="2" inkscape:pageopacity="0">
	</sodipodi:namedview>
<path id="path3523" fill="#58595B" d="M175.296,35.676l-8.455,8.363c-5.352-5.662-11.588-8.492-18.713-8.492
	c-6.209,0-11.409,2.059-15.602,6.176c-4.191,4.115-6.287,9.119-6.287,15.007c0,6.09,2.174,11.25,6.524,15.48
	c4.351,4.232,9.716,6.346,16.099,6.346c4.148,0,7.648-0.871,10.496-2.615c2.847-1.743,5.144-4.473,6.889-8.188H147.98V56.475h31.732
	l0.086,2.658c0,5.518-1.429,10.749-4.287,15.693c-2.859,4.947-6.562,8.721-11.107,11.322c-4.545,2.601-9.877,3.901-15.994,3.901
	c-6.547,0-12.387-1.424-17.518-4.267c-5.132-2.846-9.191-6.897-12.178-12.156c-2.988-5.262-4.48-10.938-4.48-17.023
	c0-8.35,2.757-15.611,8.275-21.786c6.547-7.346,15.064-11.02,25.557-11.02c5.489,0,10.621,1.014,15.395,3.043
	C167.492,28.557,171.437,31.502,175.296,35.676z"/>
<path id="path3525" fill="#58595B" d="M220.998,41.809h11.705v46.656h-11.705v-4.934c-2.285,2.174-4.576,3.74-6.875,4.697
	s-4.791,1.436-7.477,1.436c-6.023,0-11.234-2.336-15.632-7.012c-4.397-4.674-6.595-10.483-6.595-17.433
	c0-7.202,2.127-13.104,6.381-17.708c4.256-4.604,9.425-6.904,15.507-6.904c2.795,0,5.424,0.529,7.879,1.586
	c2.455,1.059,4.727,2.645,6.812,4.762L220.998,41.809L220.998,41.809z M208.689,51.415c-3.617,0-6.623,1.279-9.017,3.838
	c-2.396,2.56-3.59,5.838-3.59,9.839c0,4.032,1.217,7.35,3.653,9.949c2.438,2.604,5.436,3.902,8.996,3.902
	c3.676,0,6.725-1.278,9.146-3.838c2.421-2.559,3.633-5.91,3.633-10.058c0-4.058-1.211-7.346-3.633-9.86
	C215.457,52.672,212.395,51.415,208.689,51.415z"/>
<path id="path3527" fill="#58595B" d="M244.969,24.612h11.707v17.197h6.947v10.076h-6.947v36.58h-11.707v-36.58h-6.004V41.809h6.004
	V24.612z"/>
<path id="path3529" fill="#58595B" d="M315.625,68.523h-37.607c0.543,3.316,1.994,5.953,4.353,7.912
	c2.358,1.957,5.366,2.938,9.026,2.938c4.373,0,8.134-1.528,11.277-4.591l9.863,4.632c-2.459,3.487-5.402,6.069-8.834,7.741
	c-3.431,1.672-7.504,2.508-12.221,2.508c-7.318,0-13.279-2.309-17.881-6.924c-4.604-4.616-6.904-10.399-6.904-17.348
	c0-7.117,2.295-13.029,6.881-17.73c4.59-4.703,10.342-7.055,17.262-7.055c7.346,0,13.32,2.352,17.925,7.055
	c4.604,4.701,6.903,10.912,6.903,18.632L315.625,68.523z M303.918,59.305c-0.774-2.602-2.299-4.717-4.574-6.347
	c-2.277-1.629-4.918-2.443-7.926-2.443c-3.266,0-6.128,0.914-8.59,2.744c-1.547,1.142-2.979,3.158-4.297,6.046H303.918z"/>
<path id="path3531" fill="#002659" d="M326.83,25.168h11.707v63.296H326.83V25.168z"/>
<path id="path3533" fill="#002659" d="M344.217,41.809h11.707v4.779c2.654-2.236,5.06-3.793,7.213-4.668
	c2.156-0.875,4.361-1.312,6.617-1.312c4.625,0,8.548,1.615,11.775,4.846c2.713,2.744,4.067,6.805,4.067,12.178v30.833h-11.579
	V68.032c0-5.566-0.25-9.265-0.749-11.093c-0.497-1.828-1.367-3.221-2.608-4.175c-1.24-0.959-2.773-1.436-4.6-1.436
	c-2.365,0-4.396,0.793-6.095,2.377c-1.698,1.585-2.875,3.777-3.53,6.574c-0.343,1.457-0.513,4.613-0.513,9.466v18.72h-11.707
	L344.217,41.809L344.217,41.809z"/>
<linearGradient id="path3540_2_" gradientUnits="userSpaceOnUse" x1="206.7305" y1="-151.2734" x2="180.7302" y2="-90.7728" gradientTransform="matrix(1 0 0 -1 -137.5 -74)">
	<stop  offset="0" style="stop-color:#E5322B"/>
	<stop  offset="1" style="stop-color:#F8AF32"/>
</linearGradient>
<path id="path3540" fill="url(#path3540_2_)" d="M56.87,5.944c-12.676,0-24.174,5.015-32.644,13.156l9.969,10.404
	c5.88-5.66,13.868-9.146,22.675-9.146c18.065,0,32.71,14.645,32.71,32.71c0,18.064-14.645,32.709-32.71,32.709
	c-8.71,0-16.619-3.41-22.481-8.961l-10.416,9.979c8.493,8.285,20.095,13.398,32.897,13.398c26.026,0,47.124-21.1,47.124-47.125
	S82.896,5.944,56.87,5.944z"/>
<linearGradient id="polygon3547_2_" gradientUnits="userSpaceOnUse" x1="167.5488" y1="-127.1562" x2="128.9011" y2="-127.1562" gradientTransform="matrix(1 0 0 -1 -137.5 -74)">
	<stop  offset="0" style="stop-color:#002659"/>
	<stop  offset="1" style="stop-color:#009DD8"/>
</linearGradient>
<polygon id="polygon3547" fill="url(#polygon3547_2_)" points="4.71,77.182 4.71,97.219 48.797,53.305 4.76,9.095 4.719,29.723 
	28.445,53.305 "/>
</svg>
